<svg width="48" height="48" viewBox="0 0 48 48" fill="none" xmlns="http://www.w3.org/2000/svg">
<path d="M4.63951 29.6858C4.78051 29.883 5.00776 30 5.25001 30C5.49226 30 5.71951 29.883 5.86051 29.6858L9.61051 24.4358C9.77326 24.207 9.79576 23.9062 9.66676 23.6565C9.53776 23.4067 9.28126 23.25 9.00001 23.25H7.51651C7.91026 14.499 15.1538 7.5 24 7.5C28.404 7.5 32.547 9.2175 35.6648 12.3353C35.8058 12.4763 35.9963 12.555 36.195 12.555C36.3938 12.555 36.585 12.4763 36.7253 12.3353L38.8478 10.2127C39.141 9.9195 39.141 9.4455 38.8478 9.15225C34.881 5.18475 29.6078 3 24 3C12.672 3 3.40951 12.0165 3.01351 23.25H1.50001C1.21876 23.25 0.961513 23.4067 0.833263 23.6565C0.705013 23.9062 0.726763 24.207 0.889513 24.4358L4.63951 29.6858ZM3.75001 24.75C4.16401 24.75 4.50001 24.414 4.50001 24C4.50001 13.248 13.248 4.5 24 4.5C28.956 4.5 33.6315 6.33825 37.2473 9.69225L36.1845 10.755C32.8523 7.683 28.554 6 24 6C14.0745 6 6.00001 14.0753 6.00001 24C6.00001 24.414 6.33601 24.75 6.75001 24.75H7.54276L5.25001 27.9592L2.95726 24.75H3.75001Z" fill="#DC1922"/>
<path d="M42.75 18C42.5077 18 42.2805 18.117 42.1395 18.3143L38.3895 23.5643C38.2267 23.793 38.2042 24.0938 38.3332 24.3435C38.4622 24.5933 38.7187 24.75 39 24.75H40.4835C40.0897 33.501 32.8462 40.5 24 40.5C19.596 40.5 15.453 38.7825 12.3352 35.6648C12.1942 35.5238 12.0037 35.445 11.805 35.445C11.6062 35.445 11.415 35.5238 11.2747 35.6648L9.15225 37.7873C8.859 38.0805 8.859 38.5545 9.15225 38.8478C13.119 42.8153 18.3922 45 24 45C35.328 45 44.5905 35.9835 44.9865 24.75H46.5C46.7812 24.75 47.0385 24.5933 47.1667 24.3435C47.295 24.0938 47.2732 23.793 47.1097 23.5643L43.3605 18.315C43.2202 18.1178 42.993 18 42.75 18ZM44.25 23.25C43.836 23.25 43.5 23.586 43.5 24C43.5 34.752 34.752 43.5 24 43.5C19.044 43.5 14.3685 41.6618 10.7527 38.3078L11.8155 37.245C15.1477 40.317 19.446 42 24 42C33.9255 42 42 33.9247 42 24C42 23.586 41.664 23.25 41.25 23.25H40.4572L42.7492 20.0415L45.042 23.25H44.25Z" fill="#DC1922"/>
<path d="M24 37.5C31.4438 37.5 37.5 31.4438 37.5 24C37.5 16.5562 31.4438 10.5 24 10.5C16.5562 10.5 10.5 16.5562 10.5 24C10.5 31.4438 16.5562 37.5 24 37.5ZM24 12C30.6165 12 36 17.3835 36 24C36 30.6165 30.6165 36 24 36C17.3835 36 12 30.6165 12 24C12 17.3835 17.3835 12 24 12Z" fill="#DC1922"/>
<path d="M23.25 13.499H24.75V15.7498H23.25V13.499Z" fill="#DC1922"/>
<path d="M23.25 32.25H24.75V34.4993H23.25V32.25Z" fill="#DC1922"/>
<path d="M32.25 23.25H34.4993V24.75H32.25V23.25Z" fill="#DC1922"/>
<path d="M13.4993 23.25H15.75V24.75H13.4993V23.25Z" fill="#DC1922"/>
<path d="M15.9647 30.9679L17.4645 29.4681L18.5252 30.5288L17.0254 32.0285L15.9647 30.9679Z" fill="#DC1922"/>
<path d="M29.4648 17.4712L30.9645 15.9714L32.0252 17.0321L30.5254 18.5319L29.4648 17.4712Z" fill="#DC1922"/>
<path d="M15.9662 17.0306L17.0269 15.97L18.5267 17.4698L17.466 18.5304L15.9662 17.0306Z" fill="#DC1922"/>
<path d="M29.4632 30.5306L30.5239 29.47L32.0237 30.9698L30.963 32.0304L29.4632 30.5306Z" fill="#DC1922"/>
<path d="M26.4697 27.5303L27.5303 26.4697L24.75 23.6895V17.25H23.25V24C23.25 24.1988 23.3287 24.39 23.4697 24.5303L26.4697 27.5303Z" fill="#DC1922"/>
</svg>
