<svg width="48" height="48" viewBox="0 0 48 48" fill="none" xmlns="http://www.w3.org/2000/svg">
<path d="M32.25 31.5H15.75C13.6823 31.5 12 33.1823 12 35.25V36.75C12 37.1648 12.3353 37.5 12.75 37.5H35.25C35.6647 37.5 36 37.1648 36 36.75V35.25C36 33.1823 34.3177 31.5 32.25 31.5ZM34.5 36H13.5V35.25C13.5 34.0095 14.5095 33 15.75 33H32.25C33.4905 33 34.5 34.0095 34.5 35.25V36Z" fill="#DC1922"/>
<path d="M47.25 21.75C47.25 20.5095 46.2405 19.5 45 19.5H43.5C42.5168 19.5 41.6445 20.0392 41.1803 20.8643L40.32 18.4988C39.3862 15.9293 37.1295 14.0535 34.431 13.6035C34.017 13.5345 33.5977 13.5 33.183 13.5H24.7118C24.7275 13.251 24.75 13.0035 24.75 12.75C24.75 6.1335 19.3665 0.75 12.75 0.75C6.1335 0.75 0.75 6.1335 0.75 12.75C0.75 15.2587 1.52625 17.5875 2.84775 19.5158C1.67925 19.5952 0.75 20.5613 0.75 21.75C0.75 22.9905 1.7595 24 3 24H4.67775L1.76925 26.4232C1.638 26.5327 1.548 26.685 1.51425 26.8523C1.00725 29.3903 0.75 31.9875 0.75 34.575V36.6285C0.75 38.2365 1.005 39.8242 1.5 41.3535V44.25C1.5 45.9045 2.8455 47.25 4.5 47.25H6.75C8.4045 47.25 9.75 45.9045 9.75 44.25V42H11.5642C12.4342 42 13.2922 41.8605 14.112 41.586C14.7817 41.3633 15.48 41.25 16.1857 41.25H31.8142C32.52 41.25 33.2183 41.3633 33.8872 41.586C34.7077 41.8605 35.5658 42 36.4358 42H38.25V44.25C38.25 45.9045 39.5955 47.25 41.25 47.25H43.5C45.1545 47.25 46.5 45.9045 46.5 44.25V41.3535C46.995 39.825 47.25 38.2365 47.25 36.6285V34.575C47.25 31.9882 46.9927 29.3903 46.485 26.853C46.4512 26.685 46.3612 26.5335 46.23 26.424L43.3223 24H45C46.2405 24 47.25 22.9905 47.25 21.75ZM42.363 21.888C42.4943 21.3645 42.9615 21 43.5 21H45C45.414 21 45.75 21.336 45.75 21.75C45.75 22.164 45.414 22.5 45 22.5H42.21L42.363 21.888ZM33.183 15C33.5153 15 33.8535 15.0278 34.185 15.0825C36.3503 15.4433 38.1608 16.9492 38.9108 19.011L40.1468 22.4093C38.9663 22.3095 37.785 22.218 36.5993 22.1408C36.1012 20.1712 34.3425 18.75 32.25 18.75C30.318 18.75 28.6245 20.0002 28.0072 21.7875C26.9092 21.768 25.8105 21.75 24.7163 21.75H23.2838C22.4115 21.75 21.5265 21.7575 20.6378 21.771C22.614 20.0408 24.0203 17.6805 24.531 15H33.183ZM34.9905 22.0507C33.2017 21.9502 31.4107 21.8715 29.6213 21.8235C30.1357 20.88 31.1318 20.25 32.25 20.25C33.4755 20.25 34.5255 20.9835 34.9905 22.0507ZM12.75 2.25C18.54 2.25 23.25 6.96 23.25 12.75C23.25 18.54 18.54 23.25 12.75 23.25C6.96 23.25 2.25 18.54 2.25 12.75C2.25 6.96 6.96 2.25 12.75 2.25ZM2.25 21.75C2.25 21.336 2.586 21 3 21H4.05825C4.58325 21.5527 5.16 22.0545 5.781 22.5H3C2.586 22.5 2.25 22.164 2.25 21.75ZM8.25 44.25C8.25 45.0773 7.57725 45.75 6.75 45.75H4.5C3.67275 45.75 3 45.0773 3 44.25V42H8.25V44.25ZM43.5 45.75H41.25C40.4227 45.75 39.75 45.0773 39.75 44.25V42H45V44.25C45 45.0773 44.3273 45.75 43.5 45.75ZM45.75 36.6285C45.75 37.9417 45.5648 39.2415 45.1987 40.5H36.4358C35.7278 40.5 35.0303 40.3875 34.362 40.164C33.5393 39.8895 32.682 39.75 31.8142 39.75H16.1857C15.318 39.75 14.4608 39.8895 13.6373 40.164C12.9698 40.3875 12.2723 40.5 11.5642 40.5H2.80125C2.43525 39.2415 2.25 37.9417 2.25 36.6285V34.575C2.25 32.5192 2.42925 30.459 2.763 28.428L3.24525 29.6355C3.69975 30.7673 4.7805 31.5 6 31.5H9.6285C11.2845 31.5 12.9195 31.2345 14.4877 30.711C14.7652 30.6188 14.964 30.3728 14.9963 30.081C15.0278 29.79 14.8875 29.5065 14.637 29.3565C12.0893 27.8287 9.18 26.8643 6.22425 26.568L4.185 26.364L7.2315 23.826C7.266 23.7967 7.29375 23.7615 7.323 23.7262C7.32825 23.7195 7.33725 23.7173 7.3425 23.7105C7.34475 23.7075 7.34475 23.703 7.34775 23.7C7.39275 23.6408 7.431 23.5763 7.4565 23.5057L7.458 23.502C9.0555 24.2933 10.848 24.75 12.75 24.75C14.8042 24.75 16.7393 24.2295 18.4313 23.316C20.0595 23.2717 21.6915 23.25 23.2838 23.25H24.7163C30.1118 23.25 35.5725 23.4967 40.9523 23.979L43.8158 26.3647L41.7765 26.5687C38.8215 26.8643 35.9123 27.8288 33.3638 29.3573C33.1125 29.508 32.9723 29.7908 33.0045 30.0825C33.0368 30.3735 33.2355 30.6195 33.513 30.7118C35.0827 31.2345 36.7178 31.5 38.3715 31.5H42.0007C43.2202 31.4993 44.301 30.7665 44.7547 29.634L45.237 28.428C45.5708 30.4583 45.75 32.5192 45.75 34.575V36.6285ZM4.155 27.8693L6.07425 28.0613C8.18775 28.2728 10.2765 28.854 12.2048 29.7593C11.358 29.9198 10.4963 30 9.6285 30H6C5.397 30 4.86225 29.6385 4.63875 29.0783L4.155 27.8693ZM43.845 27.8693L43.3612 29.076C43.1377 29.6378 42.603 29.9993 42 30H38.3715C37.5045 30 36.6427 29.9198 35.7952 29.7593C37.7235 28.8533 39.8115 28.2728 41.9258 28.0613L43.845 27.8693Z" fill="#DC1922"/>
<path d="M8.34075 19.5C8.95725 19.5 9.56025 19.2502 9.996 18.8145L18.8145 9.996C19.2502 9.56025 19.5 8.95725 19.5 8.34075C19.5 7.05 18.45 6 17.1593 6C16.5427 6 15.9398 6.24975 15.504 6.6855L6.6855 15.504C6.24975 15.9398 6 16.5427 6 17.1593C6 18.45 7.05 19.5 8.34075 19.5ZM7.746 16.5645L16.5645 7.746C16.7213 7.58925 16.938 7.5 17.1593 7.5C17.6227 7.5 18 7.87725 18 8.34075C18 8.562 17.9108 8.77875 17.754 8.9355L8.9355 17.754C8.77875 17.9108 8.562 18 8.34075 18C7.87725 18 7.5 17.6227 7.5 17.1593C7.5 16.938 7.58925 16.7213 7.746 16.5645Z" fill="#DC1922"/>
<path d="M16.5 15C15.2595 15 14.25 16.0095 14.25 17.25C14.25 18.4905 15.2595 19.5 16.5 19.5C17.7405 19.5 18.75 18.4905 18.75 17.25C18.75 16.0095 17.7405 15 16.5 15ZM16.5 18C16.086 18 15.75 17.664 15.75 17.25C15.75 16.836 16.086 16.5 16.5 16.5C16.914 16.5 17.25 16.836 17.25 17.25C17.25 17.664 16.914 18 16.5 18Z" fill="#DC1922"/>
<path d="M9 10.5C10.2405 10.5 11.25 9.4905 11.25 8.25C11.25 7.0095 10.2405 6 9 6C7.7595 6 6.75 7.0095 6.75 8.25C6.75 9.4905 7.7595 10.5 9 10.5ZM9 7.5C9.414 7.5 9.75 7.836 9.75 8.25C9.75 8.664 9.414 9 9 9C8.586 9 8.25 8.664 8.25 8.25C8.25 7.836 8.586 7.5 9 7.5Z" fill="#DC1922"/>
</svg>
