<svg width="48" height="48" viewBox="0 0 48 48" fill="none" xmlns="http://www.w3.org/2000/svg">
<path d="M37.2803 15.9697C36.987 15.6764 36.513 15.6764 36.2198 15.9697L34.125 18.0644L32.0303 15.9697C31.737 15.6764 31.263 15.6764 30.9698 15.9697L23.6895 23.2499H8.25V24.7499H22.1895L10.7198 36.2197C10.4265 36.5129 10.4265 36.9869 10.7198 37.2802L20.4698 47.0302C20.616 47.1764 20.808 47.2499 21 47.2499C21.192 47.2499 21.384 47.1764 21.5303 47.0302L23.625 44.9354L25.7198 47.0302C25.866 47.1764 26.058 47.2499 26.25 47.2499C26.442 47.2499 26.634 47.1764 26.7803 47.0302L47.0303 26.7802C47.3235 26.4869 47.3235 26.0129 47.0303 25.7197L37.2803 15.9697ZM29.2455 42.4439C28.44 41.6857 27.3578 41.2499 26.25 41.2499C25.1423 41.2499 24.06 41.6857 23.2545 42.4439L20.556 39.7454C21.3143 38.9399 21.75 37.8577 21.75 36.7499C21.75 35.6422 21.3143 34.5599 20.556 33.7544L33.7545 20.5559C34.56 21.3142 35.6423 21.7499 36.75 21.7499C37.8578 21.7499 38.94 21.3142 39.7455 20.5559L42.444 23.2544C41.6858 24.0599 41.25 25.1422 41.25 26.2499C41.25 27.3577 41.6858 28.4399 42.444 29.2454L29.2455 42.4439ZM15.306 39.7454C15.8445 39.1732 16.2188 38.4622 16.3898 37.7002L20.0618 41.3722C19.2983 41.5424 18.5798 41.9077 18.006 42.4454L15.306 39.7454ZM28.5045 20.5559C29.0768 21.0944 29.7878 21.4687 30.5498 21.6397L16.3898 35.7997C16.218 35.0377 15.8438 34.3267 15.306 33.7544L28.5045 20.5559ZM20.25 36.7499C20.25 37.4624 19.9703 38.1547 19.491 38.6804L17.5605 36.7499L19.491 34.8194C19.9703 35.3452 20.25 36.0374 20.25 36.7499ZM36.75 17.5604L38.6805 19.4909C38.1548 19.9694 37.4625 20.2499 36.75 20.2499C36.0375 20.2499 35.3453 19.9694 34.8195 19.4909L36.75 17.5604ZM31.5 17.5604L33.0645 19.1249L31.9875 20.2019C31.1265 20.3489 30.2138 20.0819 29.5665 19.4939L31.5 17.5604ZM14.241 34.8194C14.7203 35.3452 15 36.0374 15 36.7499C15 37.4624 14.7203 38.1547 14.241 38.6804L12.3105 36.7499L14.241 34.8194ZM21 45.4394L19.0665 43.5059C19.7145 42.9172 20.6333 42.6532 21.4875 42.7979L22.5645 43.8749L21 45.4394ZM26.25 45.4394L24.3195 43.5089C24.8453 43.0297 25.5375 42.7499 26.25 42.7499C26.9625 42.7499 27.6548 43.0297 28.1805 43.5089L26.25 45.4394ZM43.509 28.1804C43.0298 27.6547 42.75 26.9624 42.75 26.2499C42.75 25.5374 43.0298 24.8452 43.509 24.3194L45.4395 26.2499L43.509 28.1804Z" fill="#DC1922"/>
<path d="M31.5 27C29.0182 27 27 29.0182 27 31.5C27 33.9818 29.0182 36 31.5 36C33.9818 36 36 33.9818 36 31.5C36 29.0182 33.9818 27 31.5 27ZM31.5 34.5C29.8455 34.5 28.5 33.1545 28.5 31.5C28.5 29.8455 29.8455 28.5 31.5 28.5C33.1545 28.5 34.5 29.8455 34.5 31.5C34.5 33.1545 33.1545 34.5 31.5 34.5Z" fill="#DC1922"/>
<path d="M2.25 33.75H10.5V35.25H2.25V33.75Z" fill="#DC1922"/>
<path d="M7.5 30H13.5V31.5H7.5V30Z" fill="#DC1922"/>
<path d="M0.75 26.25H11.25V27.75H0.75V26.25Z" fill="#DC1922"/>
<path d="M10.2803 16.2803L12.3668 14.1945C12.4898 14.2268 12.6165 14.25 12.75 14.25C13.5773 14.25 14.25 13.5773 14.25 12.75C14.25 11.9227 13.5773 11.25 12.75 11.25C11.9228 11.25 11.25 11.9227 11.25 12.75C11.25 12.8835 11.2733 13.0102 11.3063 13.134L9.21976 15.2197L10.2803 16.2803Z" fill="#DC1922"/>
<path d="M12.75 6V7.5C15.6443 7.5 18 9.855 18 12.75C18 15.645 15.6443 18 12.75 18C11.4697 18 10.236 17.5342 9.27825 16.6882L8.28525 17.8125C9.51825 18.9008 11.1037 19.5 12.75 19.5C16.4723 19.5 19.5 16.4715 19.5 12.75C19.5 9.0285 16.4723 6 12.75 6Z" fill="#DC1922"/>
<path d="M21.2197 7.28025L22.2803 6.21975L19.2803 3.21975L18.2197 4.28025L19.1895 5.25L18.5557 5.88375C17.7337 5.18775 16.7843 4.6425 15.75 4.275V1.5C15.75 1.086 15.4148 0.75 15 0.75H10.5C10.0852 0.75 9.75 1.086 9.75 1.5V4.275C6.26025 5.51475 3.75 8.84025 3.75 12.75C3.75 17.7127 7.78725 21.75 12.75 21.75C17.7128 21.75 21.75 17.7127 21.75 12.75C21.75 10.5382 20.9445 8.51325 19.6163 6.945L20.25 6.3105L21.2197 7.28025ZM11.25 2.25H14.25V3.88575C13.761 3.80325 13.2622 3.75 12.75 3.75C12.2378 3.75 11.739 3.80325 11.25 3.88575V2.25ZM12.75 20.25C8.6145 20.25 5.25 16.8855 5.25 12.75C5.25 8.6145 8.6145 5.25 12.75 5.25C16.8855 5.25 20.25 8.6145 20.25 12.75C20.25 16.8855 16.8855 20.25 12.75 20.25Z" fill="#DC1922"/>
</svg>
