<svg width="48" height="48" viewBox="0 0 48 48" fill="none" xmlns="http://www.w3.org/2000/svg">
<g clip-path="url(#clip0_106:120)">
<path d="M47.568 33.856L44.736 25.912C44.7261 25.8787 44.7127 25.8465 44.696 25.816L40.144 13.064C39.9176 12.4274 39.3157 12.0015 38.64 12H32.72C33.7857 10.3418 34.3675 8.41898 34.4 6.44804C34.2997 2.79108 31.2571 -0.0940086 27.6 3.81765e-05C23.9429 -0.0940086 20.9003 2.79108 20.8 6.44804C20.8325 8.41898 21.4143 10.3418 22.48 12H9.368C8.68935 11.9982 8.08334 12.4246 7.85599 13.064L2.01599 29.424C2.01284 29.456 2.01284 29.4881 2.01599 29.52L0.431995 33.848C0.355749 34.0744 0.331147 34.3149 0.359995 34.552V34.616V34.744C0.524322 35.4915 1.19492 36.0179 1.95999 36H10.832L1.00799 46.656C0.750441 46.9344 0.723714 47.3553 0.943995 47.664C1.16225 47.9715 1.56555 48.0848 1.91199 47.936L15.6 42.12L29.288 47.936C29.3872 47.9763 29.4929 47.998 29.6 48C29.8603 48.0014 30.105 47.8761 30.256 47.664C30.4763 47.3553 30.4495 46.9344 30.192 46.656L20.368 36H46.064C46.5853 35.9998 47.0738 35.7457 47.3732 35.3189C47.6725 34.8921 47.7452 34.3463 47.568 33.856ZM40.888 19.896L39.008 19.096L40.384 18.504L40.888 19.896ZM27.6 1.60004C30.372 1.51003 32.6958 3.67655 32.8 6.44804C32.8 10.896 28.92 14.216 27.6 15.248C26.28 14.248 22.4 10.928 22.4 6.44804C22.5042 3.67655 24.828 1.51003 27.6 1.60004ZM27.2 16.872C27.4632 17.0409 27.8008 17.0409 28.064 16.872C29.3851 15.952 30.57 14.8505 31.584 13.6H38.248L27.544 18.216L16.848 13.6H23.616C24.6495 14.8551 25.8563 15.9567 27.2 16.872ZM12.8 13.6L27.2 19.824C27.404 19.9131 27.636 19.9131 27.84 19.824L39.128 14.96L39.848 16.984L36.648 18.352C36.353 18.4777 36.1615 18.7674 36.1615 19.088C36.1615 19.4087 36.353 19.6984 36.648 19.824L41.6 21.96L42.592 24.72L32.6 20.4C32.3983 20.3133 32.1697 20.3133 31.968 20.4L20.128 25.496C19.833 25.6217 19.6415 25.9114 19.6415 26.232C19.6415 26.5527 19.833 26.8424 20.128 26.968L37.344 34.4H31.944L16.048 27.536C15.844 27.447 15.612 27.447 15.408 27.536L2.39999 33.168L3.35999 30.4L8.95999 28C9.255 27.8744 9.44646 27.5847 9.44646 27.264C9.44646 26.9434 9.255 26.6537 8.95999 26.528L5.31199 24.952L6.03999 22.928L13.032 25.952C13.236 26.0411 13.468 26.0411 13.672 25.952L23.136 21.872C23.431 21.7464 23.6225 21.4567 23.6225 21.136C23.6225 20.8154 23.431 20.5257 23.136 20.4L9.104 14.344L9.368 13.6H12.8ZM4.79999 26.464L6.62399 27.264L4.11199 28.328L4.79999 26.464ZM8.59199 15.848L20.8 21.136L13.352 24.336L6.57599 21.416L8.59199 15.848ZM15.936 40.52C15.7366 40.4356 15.5114 40.4356 15.312 40.52L4.70399 45.016L13.216 35.768L15.616 33.192L18.016 35.768L26.496 45.016L15.936 40.52ZM16.216 31.456C16.0644 31.2892 15.8494 31.1941 15.624 31.1941C15.3986 31.1941 15.1836 31.2892 15.032 31.456L12.304 34.4H3.56799L15.728 29.144L27.904 34.4H18.896L16.216 31.456ZM41.384 34.4L22.464 26.232L32.28 22.008L43.352 26.808L46.064 34.4H41.384Z" fill="#DC1922"/>
<path d="M31.2 6.79995C31.2 4.81173 29.5882 3.19995 27.6 3.19995C25.6118 3.19995 24 4.81173 24 6.79995C24 8.78818 25.6118 10.4 27.6 10.4C29.5864 10.3956 31.1956 8.78635 31.2 6.79995ZM25.6 6.79995C25.6 5.69538 26.4954 4.79995 27.6 4.79995C28.7046 4.79995 29.6 5.69538 29.6 6.79995C29.6 7.90452 28.7046 8.79995 27.6 8.79995C26.4954 8.79995 25.6 7.90452 25.6 6.79995Z" fill="#DC1922"/>
</g>
<defs>
<clipPath id="clip0_106:120">
<rect width="48" height="48" fill="white"/>
</clipPath>
</defs>
</svg>
