<svg width="48" height="48" viewBox="0 0 48 48" fill="none" xmlns="http://www.w3.org/2000/svg">
<path d="M13.5 8.25H21V9.75H13.5V8.25Z" fill="#DC1922"/>
<path d="M13.5 11.25H24V12.75H13.5V11.25Z" fill="#DC1922"/>
<path d="M13.5 14.25H31.5V15.75H13.5V14.25Z" fill="#DC1922"/>
<path d="M14.25 21.75H30.75C30.9489 21.75 31.1397 21.671 31.2803 21.5303C31.421 21.3897 31.5 21.1989 31.5 21V18C31.5 17.8011 31.421 17.6103 31.2803 17.4697C31.1397 17.329 30.9489 17.25 30.75 17.25H14.25C14.0511 17.25 13.8603 17.329 13.7197 17.4697C13.579 17.6103 13.5 17.8011 13.5 18V21C13.5 21.1989 13.579 21.3897 13.7197 21.5303C13.8603 21.671 14.0511 21.75 14.25 21.75ZM15 18.75H30V20.25H15V18.75Z" fill="#DC1922"/>
<path d="M4.5 23.25H16.5V24.75H4.5V23.25Z" fill="#DC1922"/>
<path d="M4.5 26.25H14.25V27.75H4.5V26.25Z" fill="#DC1922"/>
<path d="M37.5 23.6453V1.5C37.5 1.30109 37.421 1.11032 37.2803 0.96967C37.1397 0.829018 36.9489 0.75 36.75 0.75H5.25C5.05109 0.75 4.86032 0.829018 4.71967 0.96967C4.57902 1.11032 4.5 1.30109 4.5 1.5V3.75H2.25C2.05109 3.75 1.86032 3.82902 1.71967 3.96967C1.57902 4.11032 1.5 4.30109 1.5 4.5V46.5C1.5 46.6989 1.57902 46.8897 1.71967 47.0303C1.86032 47.171 2.05109 47.25 2.25 47.25H34.5C37.4203 47.2524 40.2411 46.1892 42.4331 44.2597C44.6252 42.3302 46.0379 39.6671 46.406 36.7702C46.7742 33.8732 46.0726 30.9414 44.4329 28.5249C42.7932 26.1085 40.328 24.3734 37.5 23.6453ZM6 2.25H36V23.3542C35.5027 23.288 35.0017 23.2532 34.5 23.25V11.25C34.5 11.0511 34.4209 10.8604 34.2803 10.7198L27.5303 3.96975C27.3896 3.82909 27.1989 3.75004 27 3.75H6V2.25ZM27.75 6.3105L31.9395 10.5H27.75V6.3105ZM3 45.75V5.25H26.25V11.25C26.25 11.4489 26.329 11.6397 26.4697 11.7803C26.6103 11.921 26.8011 12 27 12H33V23.3542C30.4875 23.6684 28.1389 24.77 26.2911 26.5012C24.4433 28.2323 23.1911 30.5041 22.714 32.9909C22.2369 35.4776 22.5594 38.0515 23.6354 40.3436C24.7113 42.6357 26.4854 44.5283 28.7033 45.75H3ZM34.5 45.75C32.4233 45.75 30.3932 45.1342 28.6665 43.9804C26.9398 42.8267 25.594 41.1868 24.7993 39.2682C24.0045 37.3496 23.7966 35.2383 24.2018 33.2015C24.6069 31.1647 25.6069 29.2938 27.0754 27.8254C28.5438 26.3569 30.4147 25.3569 32.4515 24.9518C34.4883 24.5466 36.5996 24.7545 38.5182 25.5493C40.4368 26.344 42.0767 27.6898 43.2304 29.4165C44.3842 31.1432 45 33.1733 45 35.25C44.997 38.0339 43.8898 40.7028 41.9213 42.6713C39.9528 44.6398 37.2839 45.747 34.5 45.75Z" fill="#DC1922"/>
<path d="M13.2803 42.2197C13.1818 42.1213 13.0579 42.0521 12.9224 42.02C12.7869 41.988 12.6451 41.9943 12.513 42.0382L11.25 42.4597V41.25C11.25 41.1017 11.206 40.9567 11.1236 40.8334C11.0411 40.7101 10.924 40.614 10.787 40.5572C10.65 40.5005 10.4992 40.4856 10.3537 40.5146C10.2083 40.5435 10.0746 40.6149 9.96975 40.7197L9 41.6895V41.25C9 40.6533 8.76295 40.081 8.34099 39.659C7.91903 39.2371 7.34674 39 6.75 39C6.15326 39 5.58097 39.2371 5.15901 39.659C4.73705 40.081 4.5 40.6533 4.5 41.25V44.25H6V41.25C6 41.0511 6.07902 40.8603 6.21967 40.7197C6.36032 40.579 6.55109 40.5 6.75 40.5C6.94891 40.5 7.13968 40.579 7.28033 40.7197C7.42098 40.8603 7.5 41.0511 7.5 41.25V43.5C7.50003 43.6483 7.54404 43.7933 7.62645 43.9166C7.70886 44.0399 7.82598 44.136 7.96301 44.1928C8.10003 44.2495 8.25081 44.2644 8.39627 44.2354C8.54174 44.2065 8.67536 44.1351 8.78025 44.0303L9.75 43.0605V43.5C9.74997 43.6188 9.77818 43.736 9.83231 43.8418C9.88644 43.9476 9.96493 44.039 10.0613 44.1085C10.1577 44.178 10.2692 44.2236 10.3867 44.2416C10.5042 44.2595 10.6243 44.2493 10.737 44.2118L12.5842 43.596C13.1547 44.0225 13.8483 44.252 14.5605 44.25H15.75V42.75H14.5605C14.0806 42.7485 13.6206 42.558 13.2803 42.2197Z" fill="#DC1922"/>
<path d="M4.5 29.25H21V30.75H4.5V29.25Z" fill="#DC1922"/>
<path d="M4.5 32.25H16.5V33.75H4.5V32.25Z" fill="#DC1922"/>
<path d="M8.25 35.25H21V36.75H8.25V35.25Z" fill="#DC1922"/>
<path d="M39.2197 28.7198L32.25 35.6896L29.7802 33.2198C29.6396 33.0792 29.4489 33.0002 29.25 33.0002C29.0511 33.0002 28.8604 33.0792 28.7197 33.2198L26.4697 35.4698C26.3291 35.6105 26.2502 35.8012 26.2502 36.0001C26.2502 36.199 26.3291 36.3897 26.4697 36.5303L31.7197 41.7803C31.8604 41.9209 32.0511 41.9999 32.25 41.9999C32.4489 41.9999 32.6396 41.9209 32.7802 41.7803L42.5302 32.0303C42.6708 31.8897 42.7498 31.699 42.7498 31.5001C42.7498 31.3012 42.6708 31.1105 42.5302 30.9698L40.2802 28.7198C40.1396 28.5792 39.9489 28.5002 39.75 28.5002C39.5511 28.5002 39.3604 28.5792 39.2197 28.7198ZM32.25 40.1896L28.0605 36.0001L29.25 34.8106L31.7197 37.2803C31.8604 37.4209 32.0511 37.4999 32.25 37.4999C32.4489 37.4999 32.6396 37.4209 32.7802 37.2803L39.75 30.3106L40.9395 31.5001L32.25 40.1896Z" fill="#DC1922"/>
</svg>
