<svg width="150" height="150" viewBox="0 0 150 150" fill="none" xmlns="http://www.w3.org/2000/svg">
<path fill-rule="evenodd" clip-rule="evenodd" d="M48.7319 66.6517C48.7319 43.4202 65.9402 41.2697 75.4044 41.2697C84.8691 41.2697 102.078 43.4207 102.078 66.6517C102.078 89.3096 84.5826 92.1777 75.4044 92.1777C66.3707 92.1777 48.7319 89.3096 48.7319 66.6517ZM85.4431 65.7912L88.3111 87.3016C89.8887 86.4411 98.4924 82.2829 98.3498 66.6512C98.3498 48.2954 87.1641 43.4198 77.5564 43.4198L85.4431 65.7912ZM75.4044 61.4891H76.6954V43.4202H74.2578V61.4891H75.4044ZM75.4044 90.0266C80.711 90.0266 85.4431 88.5926 87.4511 87.5886L76.9815 64.7876H73.8274L63.3587 87.5886C65.3667 88.5921 70.0988 90.0266 75.4044 90.0266ZM73.2538 43.4202C63.6457 43.4202 52.46 48.2959 52.46 66.6517C52.3165 82.2829 60.9211 86.4415 62.4986 87.302L65.5102 65.7916L73.2538 43.4202Z" fill="#BDC1C5"/>
<path fill-rule="evenodd" clip-rule="evenodd" d="M45.4921 96.9313H48.313L54.659 107.438H51.6623L46.8674 99.5052L44.3639 103.701H48.4538L49.6525 105.675H43.1653L42.1074 107.438H39.1461L45.4921 96.9313ZM101.833 96.9313H104.689L111 107.438H108.003L103.244 99.5052L100.705 103.701H104.795L105.994 105.675H99.5417L98.4484 107.438H95.4867L101.833 96.9313ZM74.156 107.473H76.5183C79.2684 107.438 80.3612 105.922 80.3612 103.454V96.9313H77.7873V103.912C77.7873 105.217 76.8712 105.393 76.0241 105.428H72.3225C71.4763 105.393 70.5598 105.217 70.5598 103.912V96.9313H67.9509V103.454C67.9509 105.922 69.0791 107.438 71.8292 107.473H74.156ZM57.0917 102.185V100.88C57.1271 99.9989 57.3033 99.0819 58.5373 99.1174H66.4702V96.9313H58.5019C56.0343 96.9313 54.5178 98.0595 54.4823 100.809V103.595C54.5178 106.345 56.0338 107.438 58.5019 107.438H66.4702V105.287H58.5373C57.3033 105.287 57.1271 104.406 57.0917 103.523V102.185ZM84.6279 107.438H82.054V96.9313H91.6801C95.0293 96.9313 95.875 101.374 93.5482 102.925C94.5701 103.313 94.7122 104.582 94.7822 105.005L94.8531 107.438H92.3141L92.2442 105.287C92.1733 104.371 91.5742 103.736 90.6572 103.736H85.7561L85.2628 101.55H90.9388C91.8209 101.55 92.3137 101.162 92.3137 100.386C92.3137 99.646 91.8204 99.1878 90.9388 99.1878H84.6279V107.438Z" fill="#BDC1C5"/>
</svg>
