<svg width="150" height="150" viewBox="0 0 150 150" fill="none" xmlns="http://www.w3.org/2000/svg">
<path fill-rule="evenodd" clip-rule="evenodd" d="M110 70.4583C110 90.0882 94.0882 106 74.4596 106C54.8309 106 38.9179 90.0882 38.9179 70.4596C38.9179 50.8309 54.8309 34.9179 74.4596 34.9179C94.0882 34.9179 110 50.8309 110 70.4583ZM109.288 70.4595C109.288 89.6945 93.6945 105.288 74.4595 105.288C55.2233 105.288 39.6298 89.6933 39.6298 70.4595C39.6298 51.2233 55.2233 35.6298 74.4595 35.6298C93.6958 35.6298 109.288 51.2233 109.288 70.4595Z" fill="#BDC1C5"/>
<path fill-rule="evenodd" clip-rule="evenodd" d="M43.1064 70.0953V70.0748L45.3534 69.3182L45.333 70.9146L43.1064 70.0953ZM74.7587 95.3997V95.4002H74.7114C74.7272 95.4001 74.7429 95.3999 74.7587 95.3997ZM74.7587 95.3997C88.4016 95.2378 99.4003 84.1341 99.4003 70.4595C99.4003 56.7692 88.3698 45.6544 74.7574 45.5189L74.7587 95.3997ZM49.7148 73.6102C49.7147 73.6094 49.7146 73.6085 49.7145 73.6076V73.6102H49.7148ZM49.7148 73.6102C50.5417 80.131 53.9129 86.0606 59.0936 90.1061L59.0898 73.6102H49.7148ZM59.0898 66.0499L59.0783 50.8245C54.3491 54.5337 50.9926 59.8841 49.9011 66.0474L59.0898 66.0499ZM66.6488 66.0486H74.1605V45.5189C71.6097 45.5462 69.0782 45.9661 66.6552 46.7638L66.6488 66.0486ZM66.6449 94.1502C69.0708 94.9514 71.6059 95.373 74.1605 95.4002V73.6089H66.6488L66.6449 94.1502ZM100.062 70.4595C100.062 84.5998 88.5985 96.0623 74.4596 96.0623C60.3193 96.0623 48.8555 84.5998 48.8555 70.4595C48.8555 56.3193 60.3193 44.8555 74.4596 44.8555C88.5985 44.8555 100.062 56.3193 100.062 70.4595ZM47.9404 71.9831L46.7249 71.4591L46.7568 68.8171L47.9838 68.3531L48.0081 66.3068L40.9476 69.0012L40.922 71.0961L47.9161 74.0192L47.9404 71.9831ZM49.487 57.4965L48.6037 59.6208L43.5435 57.5156L42.806 59.2872L49.2952 61.9866L50.9159 58.0921L49.487 57.4965Z" fill="#BDC1C5"/>
<path fill-rule="evenodd" clip-rule="evenodd" d="M51.647 49.7866L50.7804 48.9941L52.3449 47.2814L51.2022 46.2384L48.3443 49.3674L53.5323 54.108L54.8271 52.6918L52.7897 50.8309L54.2097 49.2766L53.0671 48.2324L51.647 49.7866ZM60.5916 47.8259L60.4752 46.5081L62.8156 45.2811L63.8074 46.1413L65.6198 45.1916L59.8962 40.2554L58.0404 41.2281L58.7881 48.7705L60.5916 47.8259ZM73.4498 43.9544L75.831 43.7652L73.29 41.0772C74.3202 40.8191 74.82 39.9371 74.7433 38.9708C74.6257 37.4741 73.4703 36.9015 72.0157 37.0178L69.1578 37.2441L69.7138 44.2484L71.6259 44.0975L71.4124 41.4045L71.4316 41.4032L73.4498 43.9544ZM82.5989 45.4524C84.8548 46.1784 86.9778 45.1776 87.6744 43.0111C88.325 40.9891 86.9203 38.9683 84.8983 38.3177C82.8762 37.6671 80.5551 38.4864 79.9032 40.5097C79.2066 42.6749 80.3442 44.7251 82.5989 45.4524ZM96.4617 45.0421L95.0864 43.7486L89.0868 47.8297L90.4928 49.122L93.9681 46.7919L93.9821 46.8047L92.4407 50.9114L92.9967 51.4341L97.0612 49.7048L97.0753 49.7176L94.9906 53.3846L96.3633 54.7228L100.096 48.4663L98.7062 47.1574L94.9765 48.805L96.4617 45.0421ZM102.983 58.5854L104.068 58.1355L104.942 60.2406L106.371 59.6488L104.762 55.7709L98.2716 58.464L99.8795 62.3419L101.309 61.7501L100.434 59.6425L101.554 59.1785L102.383 61.1762L103.812 60.5832L102.983 58.5854ZM100.829 69.6018C100.912 71.9703 102.574 73.6268 104.846 73.5475C106.971 73.4734 108.395 71.4654 108.32 69.3437C108.248 67.2206 106.69 65.3162 104.567 65.3878C102.293 65.467 100.75 67.2347 100.829 69.6018ZM59.9096 42.675L59.9262 42.666L61.6581 44.2829L60.2445 45.0242L59.9096 42.675ZM71.4552 40.2183L71.2699 40.2337L71.1318 38.4852L71.3172 38.4724C71.9409 38.4225 72.6528 38.4775 72.7129 39.2393C72.773 40.0023 72.0789 40.1698 71.4552 40.2183ZM81.6455 41.943C81.6259 41.668 81.6617 41.3919 81.7507 41.131C82.0486 40.2081 83.2142 39.6521 84.3058 40.0036C85.396 40.3551 86.0185 41.4863 85.722 42.4091C85.6419 42.6731 85.5097 42.9183 85.3331 43.1303C85.1566 43.3422 84.9393 43.5166 84.6941 43.6431C84.449 43.7695 84.1809 43.8455 83.9059 43.8665C83.6308 43.8875 83.3543 43.853 83.0928 43.7652C82.8294 43.6839 82.585 43.5505 82.3741 43.373C82.1631 43.1955 81.9899 42.9775 81.8648 42.7319C81.7397 42.4862 81.6651 42.218 81.6455 41.943ZM103.776 67.5617C104.029 67.4501 104.3 67.3902 104.576 67.3856C105.545 67.3511 106.463 68.2598 106.502 69.4051C106.542 70.549 105.688 71.5178 104.719 71.5511C104.444 71.5657 104.168 71.5249 103.909 71.431C103.65 71.3371 103.412 71.1921 103.21 71.0046C103.008 70.8171 102.845 70.5909 102.732 70.3394C102.619 70.0879 102.558 69.8162 102.551 69.5405C102.539 69.2651 102.582 68.99 102.677 68.7315C102.773 68.4729 102.92 68.2362 103.108 68.0353C103.297 67.8344 103.524 67.6733 103.776 67.5617Z" fill="#BDC1C5"/>
<path d="M81.6252 56.3346H91.0216V55.3996H81.6252V56.3346ZM81.6252 54.6202H91.0216V53.9041H81.6252V54.6202ZM88.2488 53.5005C88.4041 53.5005 88.5559 53.4565 88.685 53.3741C88.8142 53.2917 88.9148 53.1745 88.9742 53.0374C89.0337 52.9003 89.0492 52.7494 89.0189 52.6039C88.9886 52.4584 88.9138 52.3247 88.804 52.2197C88.6942 52.1148 88.5543 52.0434 88.402 52.0144C88.2496 51.9855 88.0918 52.0003 87.9483 52.0571C87.8048 52.1139 87.6821 52.2101 87.5959 52.3334C87.5096 52.4568 87.4635 52.6019 87.4635 52.7503C87.4639 52.9491 87.5467 53.1398 87.6939 53.2804C87.8411 53.421 88.0406 53.5002 88.2488 53.5005ZM84.8231 90.0473C83.7505 90.0473 82.8832 89.2806 82.8832 88.257C82.8832 87.236 83.7505 86.344 84.8231 86.344L88.6063 86.3453C89.0155 86.3453 89.3452 86.029 89.3452 85.6381C89.3459 85.4494 89.2687 85.2682 89.1304 85.1336C88.992 84.9991 88.8037 84.9221 88.6063 84.9194H82.5376C81.5952 84.9191 80.6916 84.5612 80.0253 83.9244C79.3591 83.2876 78.9848 82.424 78.9848 81.5236C78.9848 79.6498 80.5752 78.2062 82.5376 78.2062L89.9755 78.2012C90.435 78.2012 90.8071 77.9709 90.8071 77.5344C90.8082 77.3218 90.7214 77.1174 90.5657 76.9656C90.41 76.8138 90.1979 76.7267 89.9755 76.7234H82.4727C81.7598 76.7386 81.0509 76.6175 80.3877 76.3673C79.7244 76.1171 79.1202 75.7428 78.6104 75.2665C78.1006 74.7901 77.6955 74.2212 77.419 73.5932C77.1425 72.9652 77 72.2908 77 71.6094C77 70.9281 77.1425 70.2537 77.419 69.6257C77.6955 68.9977 78.1006 68.4288 78.6104 67.9524C79.1202 67.4761 79.7244 67.1018 80.3877 66.8516C81.0509 66.6014 81.7598 66.4803 82.4727 66.4955L89.6829 66.5005C90.243 66.5005 90.6972 66.0349 90.6972 65.4998C90.6972 64.9633 90.243 64.561 89.6829 64.561L81.5577 64.5648C81.9497 62.944 83.0593 62.6935 84.0366 62.6948H87.8211C87.9242 62.695 88.0264 62.6757 88.1218 62.638C88.2171 62.6004 88.3037 62.5451 88.3767 62.4754C88.4496 62.4057 88.5075 62.3229 88.5469 62.2318C88.5863 62.1407 88.6065 62.0431 88.6063 61.9445C88.6063 61.5321 88.2554 61.2588 87.8211 61.2588H84.0366C82.4065 61.2588 81.6239 59.8873 81.5577 59.1408H85.4733C85.799 58.1426 86.4519 57.6441 87.1696 57.6441H91.346C92.7814 57.6441 93.368 56.7711 93.4991 56.3966C94.4777 56.8331 98 59.5141 98 64.003C98 68.492 93.8249 70.7984 91.2136 70.8162H82.4701C82.2499 70.8162 82.0387 70.8997 81.883 71.0485C81.7273 71.1973 81.6398 71.399 81.6398 71.6094C81.6398 71.8198 81.7273 72.0216 81.883 72.1704C82.0387 72.3191 82.2499 72.4027 82.4701 72.4027L90.6919 72.3964C93.2912 72.3964 95.398 74.4891 95.398 76.9714C95.398 79.455 93.2912 81.4059 90.6919 81.4059L82.8607 81.3971C82.6526 81.3971 82.4531 81.4761 82.3059 81.6166C82.1588 81.7572 82.0761 81.9479 82.0761 82.1467C82.0761 82.3455 82.1588 82.5362 82.3059 82.6768C82.4531 82.8174 82.6526 82.8964 82.8607 82.8964L88.7996 82.9014C90.2006 82.9014 91.3367 83.987 91.3367 85.3268C91.3367 86.6679 90.2006 87.7358 88.7996 87.7358L85.2098 87.7459C85.0507 87.7459 84.8981 87.8063 84.7856 87.9138C84.6731 88.0212 84.6099 88.167 84.6099 88.319C84.6099 88.471 84.6731 88.6168 84.7856 88.7243C84.8981 88.8318 85.0507 88.8922 85.2098 88.8922H87.9667C88.9294 88.896 90.0059 90.251 87.9349 91C87.9521 90.6103 87.8859 90.0486 87.0213 90.0486C86.1605 90.0498 84.8231 90.0473 84.8231 90.0473Z" fill="#BDC1C5"/>
<path d="M82 61.4732C80.67 62.2146 80.3449 64.4373 80.4139 65.2129L78.5475 66.7462C78.4872 66.8242 78.4143 66.8868 78.3332 66.9304C78.2521 66.974 78.1644 66.9976 78.0754 66.9998C77.9865 67.002 77.8981 66.9828 77.8155 66.9433C77.7329 66.9038 77.6579 66.8449 77.5949 66.77C77.532 66.6951 77.4824 66.6058 77.4491 66.5075C77.4158 66.4092 77.3996 66.3039 77.4013 66.198C77.4031 66.092 77.4228 65.9876 77.4593 65.8909C77.4958 65.7943 77.5483 65.7074 77.6137 65.6355L78.8162 64.6397C79.41 64.1678 79.2975 63.3937 79.2125 62.7535C79.1286 62.1134 78.5624 62.4157 78.3913 62.6523C78.1386 62.9546 77.7883 63.142 77.4012 63.142C76.6271 63.142 76 62.428 76 61.506C76.0001 61.1761 76.0823 60.8537 76.2362 60.5794C76.3901 60.3051 76.6088 60.0913 76.8647 59.9649C77.1206 59.8386 77.4022 59.8055 77.6739 59.8697C77.9456 59.9338 78.1952 60.0925 78.3913 60.3256C78.5613 60.5622 79.1286 60.8659 79.2125 60.2244C79.2975 59.5842 79.41 58.8087 78.8162 58.3368L77.6137 57.3424C77.5524 57.2693 77.5038 57.1827 77.4706 57.0873C77.4374 56.9919 77.4203 56.8896 77.4203 56.7863C77.4203 56.6831 77.4374 56.5808 77.4706 56.4854C77.5038 56.39 77.5524 56.3033 77.6137 56.2303C77.675 56.1573 77.7478 56.0994 77.8279 56.0599C77.908 56.0203 77.9939 56 78.0806 56C78.1673 56 78.2532 56.0203 78.3333 56.0599C78.4134 56.0994 78.4862 56.1573 78.5475 56.2303L80.4139 57.7637C80.3013 58.4065 80.67 60.7319 82 61.4732Z" fill="#BDC1C5"/>
</svg>
