<svg width="150" height="150" viewBox="0 0 150 150" fill="none" xmlns="http://www.w3.org/2000/svg">
<path fill-rule="evenodd" clip-rule="evenodd" d="M107.204 103.59V91.1415H102.054V103.59H107.204ZM79.9386 98.4209V91.3299H74.9468V96.7505C74.9468 98.326 74.8837 98.7677 74.789 99.1775C74.4413 100.312 73.2406 100.815 72.0088 100.815C70.3032 100.815 69.5132 100.154 69.1971 99.114C69.1024 98.7683 69.0709 98.39 69.0393 98.0117C69.0078 97.602 69.0393 97.1602 69.0393 96.6886V91.3304H63.9844V98.453C63.9844 100.061 64.522 101.258 65.4061 102.077C66.9224 103.559 69.4816 104 71.8511 104C74.7259 104 76.9375 103.59 78.5169 102.046C79.339 101.258 79.9386 100.218 79.9386 98.4209ZM55.4225 97.5385C55.1722 97.4951 54.9186 97.4742 54.6646 97.4761H48.978C48.6935 97.4761 48.3774 97.5075 48.2196 97.5385C48.3143 97.4435 48.5042 97.2552 48.6935 97.0028L51.2522 92.7795C51.5999 92.2129 51.7577 91.8346 51.8208 91.6772C51.8839 91.8346 52.0417 92.2129 52.3893 92.812L55.0117 97.0669C55.1385 97.2552 55.3278 97.4435 55.4225 97.5385ZM64.9637 103.59L53.5901 86.5724H47.2087L48.8828 88.5577C48.9144 88.5891 48.978 88.6201 49.0406 88.6526C48.9775 88.6841 48.9144 88.7151 48.8828 88.7465L38.9629 103.59H44.7126L46.261 101.037C46.3241 100.911 46.3556 100.784 46.3556 100.722C46.4188 100.722 46.5771 100.784 46.7349 100.784H57.0024C57.1602 100.784 57.2864 100.753 57.3496 100.722C57.3438 100.811 57.3658 100.899 57.4127 100.974L59.0242 103.59H64.9637ZM100.664 97.1928C100.664 95.8056 100.095 94.1981 98.3263 91.9605L94.0609 86.5719H88.1213L91.5016 90.3535C92.0707 90.9841 92.797 91.5507 92.797 91.5507C91.976 91.0775 90.9336 90.8892 90.112 90.8892C88.1534 90.8892 86.1621 91.2989 84.3939 92.2763C82.4978 93.3151 81.234 95.0491 81.234 97.3502C81.234 99.1145 82.024 100.47 83.0348 101.51C85.3101 103.779 89.4477 103.999 90.9646 103.999C93.2072 103.999 96.7143 103.495 98.7055 101.699C99.8747 100.627 100.664 99.1465 100.664 97.1928ZM95.7355 97.3502C95.7355 98.6424 94.8819 99.6187 93.8079 100.154C92.9232 100.628 91.8803 100.754 90.9646 100.754C90.0489 100.754 88.9744 100.564 88.0897 100.123C87.0158 99.5872 86.1937 98.5474 86.1937 97.4126C86.1937 96.058 87.2361 94.9856 88.469 94.4499C89.2274 94.1042 90.1436 93.9778 90.8694 93.9778C91.5652 93.9778 92.5761 94.0716 93.3661 94.3875C94.7883 94.9856 95.7355 96.1204 95.7355 97.3502ZM105.568 46C101.869 45.9941 98.2767 47.2389 95.3782 49.5314C92.4798 47.2388 88.8878 45.9939 85.1887 46C81.4898 45.9943 77.8982 47.2391 74.9997 49.5314C72.1016 47.2387 68.5097 45.9938 64.8108 46C61.1119 45.9943 57.5203 47.2391 54.6218 49.5314C51.7234 47.2391 48.1317 45.9942 44.4328 46C35.3558 46 28 53.3371 28 62.392C28 71.4459 35.3553 78.784 44.4328 78.784C48.1317 78.7897 51.7233 77.5449 54.6218 75.2526C57.5202 77.545 61.1119 78.7898 64.8108 78.784C68.5097 78.7902 72.1015 77.5453 74.9997 75.2526C77.8982 77.5449 81.4898 78.7897 85.1887 78.784C88.8878 78.7901 92.4797 77.5453 95.3782 75.2526C98.2767 77.5453 101.869 78.7901 105.568 78.784C114.645 78.784 122 71.4465 122 62.392C122 53.3376 114.645 46 105.568 46ZM51.9331 72.5749C49.8391 74.0986 47.2232 75.0286 44.4328 75.0286C37.4305 75.0286 31.7643 69.3769 31.7643 62.392C31.7643 55.4071 37.4305 49.755 44.4328 49.755C47.2232 49.755 49.8375 50.6854 51.9331 52.2097C49.6243 55.1031 48.3707 58.6939 48.3785 62.392C48.3802 66.0887 49.6327 69.6766 51.9331 72.5749ZM54.6223 69.9003C53.0074 67.7289 52.138 65.0957 52.1433 62.392C52.1365 59.6881 53.0061 57.0544 54.6223 54.8837C56.2383 57.0546 57.1078 59.6882 57.1014 62.392C57.1065 65.0957 56.2371 67.7288 54.6223 69.9003ZM72.3116 72.5749C70.136 74.1726 67.5037 75.0314 64.8022 75.0248C62.1063 75.0303 59.4799 74.1714 57.3105 72.5749C59.6112 69.677 60.8637 66.0891 60.8652 62.3926C60.8729 58.6944 59.6194 55.1037 57.3105 52.2102C59.4797 50.6132 62.1062 49.7542 64.8022 49.7598C67.6129 49.7598 70.2096 50.6668 72.3116 52.2102C70.0027 55.1037 68.7492 58.6944 68.7569 62.3926C68.7585 66.0891 70.011 69.6769 72.3116 72.5749ZM74.9997 69.9003C73.3848 67.7289 72.5154 65.0957 72.5207 62.392C72.5141 59.6882 73.3837 57.0545 74.9997 54.8837C76.6161 57.0544 77.4859 59.6881 77.4793 62.392C77.4845 65.0958 76.6149 67.729 74.9997 69.9003ZM92.6895 72.5749C90.5875 74.1189 87.9908 75.0248 85.1807 75.0248C82.3706 75.0248 79.7904 74.1173 77.6884 72.5749C79.9893 69.6771 81.2419 66.0892 81.2431 62.3926C81.2508 58.6944 79.9973 55.1037 77.6884 52.2102C79.7904 50.6673 82.3706 49.7598 85.1807 49.7598C87.9908 49.7598 90.5875 50.6668 92.6895 52.2102C90.3809 55.1038 89.1274 58.6945 89.1348 62.3926C89.1367 66.0891 90.3892 69.6768 92.6895 72.5749ZM95.3787 69.9003C93.7638 67.7289 92.8944 65.0957 92.8997 62.392C92.8926 59.6881 93.7623 57.0543 95.3787 54.8837C96.9947 57.0546 97.8642 59.6882 97.8578 62.392C97.8626 65.0956 96.9933 67.7287 95.3787 69.9003ZM105.568 75.0286C102.776 75.0286 100.161 74.0986 98.0674 72.5749C100.368 69.6768 101.62 66.0891 101.622 62.3926C101.63 58.6945 100.376 55.1038 98.0674 52.2102C100.163 50.6865 102.777 49.7555 105.568 49.7555C112.569 49.7555 118.236 55.4077 118.236 62.3926C118.236 69.3764 112.569 75.0286 105.568 75.0286Z" fill="#BDC1C5"/>
</svg>
