<svg width="150" height="150" viewBox="0 0 150 150" fill="none" xmlns="http://www.w3.org/2000/svg">
<path d="M74.7832 38C54.6508 38 38.3289 54.3219 38.3289 74.4543C38.3289 94.5868 54.6508 110.909 74.7832 110.909C94.9156 110.909 111.238 94.5868 111.238 74.4543C111.238 54.3219 94.9156 38 74.7832 38ZM108.867 74.4543C108.867 93.2772 93.6088 108.538 74.7832 108.538C55.9577 108.538 40.6991 93.2772 40.6991 74.4543C40.6991 55.6315 55.9604 40.3702 74.7832 40.3702C93.606 40.3702 108.867 55.6315 108.867 74.4543Z" fill="#BDC1C5"/>
<path d="M74.7833 52.8514V54.0358C86.0401 54.0358 95.2018 63.1948 95.2018 74.4544H96.3849C96.3849 62.5249 86.7141 52.8514 74.7833 52.8514ZM74.7833 94.8729C63.5264 94.8729 54.3647 85.7139 54.3647 74.4544H53.1816C53.1816 86.3839 62.8524 96.0574 74.7833 96.0574" fill="#BDC1C5"/>
<path d="M92.2373 59.0706C92.7325 59.5989 93.4451 60.449 93.8468 60.9662L101.22 56.3166C100.769 55.7334 100.304 55.1605 99.8267 54.5984L95.1564 57.6661L94.8372 57.9371L95.0752 57.5932L97.1373 53.5062L95.6791 52.0576L91.5605 54.106L91.2138 54.3412L91.4903 54.0248L94.58 49.3889C94.0366 48.9294 93.5139 48.5085 92.8467 47.9981L88.1668 55.3165C88.7597 55.7691 89.5424 56.4335 90.0404 56.8875L94.4479 54.6163L94.7299 54.41L94.5236 54.6906L92.2373 59.0706ZM75.5027 49.7975L77.518 45.3129L77.6459 44.9167L77.6102 45.3308L77.822 51.3217C78.5437 51.3908 79.2626 51.4853 79.9776 51.6051L79.6502 42.7322C78.6446 42.6222 77.6418 42.5437 76.6403 42.5011L74.6553 47.3942L74.5838 47.7574L74.5136 47.3942L72.5299 42.5011C71.5285 42.5424 70.5256 42.6222 69.52 42.7322L69.1926 51.6051C69.9078 51.4864 70.6267 51.3919 71.3483 51.3217L71.5601 45.3308L71.5244 44.9167L71.6523 45.3143L73.6676 49.7975H75.5027ZM59.2042 56.8682C60.3693 55.6494 61.0296 54.2408 59.8645 52.8981C59.2303 52.1691 58.1656 52.0081 57.2838 52.3685L57.1957 52.4015L57.2232 52.3259C57.3539 51.9792 57.4378 50.8732 56.49 50.1097C56.0264 49.7383 55.4459 49.5994 54.8599 49.6585C53.7649 49.7686 52.9244 50.5114 50.6326 53.0481C49.8356 53.9417 49.068 54.8611 48.3311 55.8049L54.6247 61.7339C56.7101 59.4407 57.5603 58.5891 59.2055 56.8682H59.2042ZM50.9916 55.4183C52.2599 53.8776 53.6067 52.4813 54.2175 51.9283C54.4101 51.7536 54.6205 51.5789 54.875 51.5115C55.2877 51.3987 55.7142 51.6903 55.8105 52.1113C55.9068 52.5336 55.6399 52.9367 55.3427 53.2668C54.6714 54.0179 52.2132 56.5725 52.2132 56.5725L50.993 55.4169L50.9916 55.4183ZM53.4567 57.7404C53.4567 57.7404 55.8504 55.2257 56.6331 54.4224C56.944 54.1032 57.1421 53.9092 57.3567 53.8061C57.6318 53.6713 57.9344 53.6437 58.2041 53.8226C58.4696 53.9987 58.592 54.304 58.526 54.6053C58.4462 54.9644 58.1504 55.3069 57.9069 55.5683L54.7333 58.9413L53.4567 57.7404Z" fill="#BDC1C5"/>
<path d="M74.7833 52.8514V74.4544H53.1803C53.1803 62.5152 62.8441 52.8514 74.7833 52.8514ZM96.3862 74.4544C96.3862 86.3935 86.7224 96.0574 74.7833 96.0574V74.4544H96.3862Z" fill="#BDC1C5"/>
</svg>
