<svg width="150" height="150" viewBox="0 0 150 150" fill="none" xmlns="http://www.w3.org/2000/svg">
<path fill-rule="evenodd" clip-rule="evenodd" d="M103.445 49.6002C108.649 52.4479 114.538 57.4548 113.924 64.1298C113.21 70.3164 107.443 74.635 102.291 77.237C87.2442 84.429 66.1139 84.6489 50.5789 78.3652C45.3292 76.1802 39.4368 72.4243 37.229 66.7804C35.5381 62.1419 37.5974 57.3092 41.0592 54.0931C48.2997 47.5152 57.5281 45.2588 67.0251 43.9564C77.3332 42.7053 88.1811 43.8107 97.4095 46.9754C99.4717 47.738 101.505 48.572 103.445 49.6002ZM120.505 90.984V105.922H117.257V101.626H109.848V105.922H106.601V94.2087C106.601 92.1379 107.438 90.9812 109.848 90.9812H120.505V90.984ZM83.394 67.7144C83.9344 70.4948 82.6469 72.8457 81.4096 75.1051C81.2932 75.3176 81.1773 75.5292 81.0633 75.7404C79.5895 78.0225 77.1617 79.9847 74.2398 79.6934C67.8374 79.6048 61.4781 78.6302 55.3431 76.7972C55.0608 76.7241 54.8156 76.5491 54.6547 76.3059C54.5319 75.9632 54.7061 75.6433 54.9518 75.4233C60.1362 71.2245 66.2627 69.1784 72.366 67.1402L72.3681 67.1395C72.6493 67.0456 72.9305 66.9517 73.2116 66.8575L73.2417 66.8488C75.6122 66.163 78.1327 65.4337 80.7949 65.7779C81.8974 65.9236 83.0027 66.6833 83.394 67.7144ZM105.753 54.7072C108.794 57.2092 111.545 60.6224 110.611 64.7439C109.089 70.8305 102.462 74.0724 97.1867 76.1317L96.9993 76.1942C94.1901 77.131 91.3516 78.0775 88.2781 78.3653C88.243 78.3612 88.204 78.3594 88.1633 78.3575C87.9756 78.3488 87.7525 78.3385 87.7126 78.0968L87.7869 77.754C92.2512 72.7214 95.6386 67.0775 98.6091 61.3593C99.9829 58.783 101.26 56.1324 102.436 53.5304C102.582 53.3638 102.768 53.237 102.976 53.162C103.805 53.2346 104.453 53.7318 105.096 54.2252C105.313 54.3918 105.53 54.5579 105.753 54.7072ZM62.9263 48.2264L62.8264 48.5949C56.3713 55.9325 52.127 64.4497 48.1025 72.9156C47.5264 73.4561 46.9626 73.0715 46.4223 72.7031C46.226 72.5692 46.0328 72.4374 45.8433 72.3529C42.2616 69.9965 39.0226 66.192 39.9566 61.6764C41.4533 55.7868 47.5142 52.6421 52.5725 50.5085C55.6096 49.3361 58.7595 48.4804 61.9724 47.9551C62.0138 47.9554 62.0568 47.955 62.1006 47.9546C62.4162 47.9515 62.7759 47.948 62.9263 48.2264ZM94.9531 49.406C95.0565 49.4605 95.1658 49.5056 95.2743 49.5503C95.5525 49.6651 95.826 49.7779 95.9842 50.043C96.1437 50.3805 95.9159 50.6226 95.7067 50.845C95.6574 50.8973 95.6092 50.9486 95.5672 50.9998C90.486 54.9757 84.6707 57.1835 78.7298 59.1229C78.0838 59.28 77.4366 59.4642 76.7854 59.6497L76.7853 59.6497C74.3932 60.3308 71.9467 61.0274 69.3043 60.4482C68.8989 60.3446 68.5185 60.1608 68.1854 59.9076C67.8523 59.6545 67.5733 59.3372 67.3649 58.9744C66.5309 56.6665 67.6591 54.2616 68.6416 52.2508C69.9441 49.7231 72.249 46.7526 75.4394 46.704C82.3144 46.6583 88.7951 47.6866 94.9531 49.406ZM111.159 93.726H117.257H117.26V98.7101H109.851V95.2855C109.851 94.0402 110.134 93.786 111.159 93.726Z" fill="#BDC1C5"/>
<path fill-rule="evenodd" clip-rule="evenodd" d="M105.035 103.949V95.3804C105.035 93.8212 104.527 91.9592 101.593 91.9622H90.7356V107.797H101.593C103.503 107.797 105.035 106.677 105.035 103.949ZM100.1 94.8658C101.027 94.8658 101.553 95.4653 101.553 96.3312V103.243C101.553 103.885 101.451 104.694 100.1 104.763H94.1811V94.8658H100.1Z" fill="#BDC1C5"/>
<path d="M24 91H27.237V96.91H34.4796V91H37.7166V105.997H34.4796V99.875H27.237V105.997H24V91ZM43.2653 91L47.3223 97.1279L51.3308 91H55.2624L48.9393 100.586V105.997H45.7023V100.586L39.3337 91H43.2653ZM73.4317 91H83.8629C85.349 91 86.7896 91.2093 86.7469 94.2403V106H83.5099V95.3185C83.5099 94.0252 83.3562 93.7528 82.3512 93.7528H76.6687V106H73.4317V91ZM123.763 91.0029H127V106H123.763V91.0029ZM56.8795 105.997H67.3107C69.3862 105.997 70.2374 105.392 70.1947 102.378V91H66.9577V101.704C66.9577 102.989 66.804 103.144 65.7962 103.144H60.1136V91H56.8766V105.997H56.8795Z" fill="#BDC1C5"/>
</svg>
