<svg width="24" height="24" viewBox="0 0 24 24" fill="none" xmlns="http://www.w3.org/2000/svg">
<path fill-rule="evenodd" clip-rule="evenodd" d="M13.4286 3.42857H10.5714C8.51074 3.42857 7.10893 3.43161 6.05919 3.57274C5.05054 3.70835 4.58337 3.94745 4.26541 4.26541C3.94745 4.58337 3.70835 5.05054 3.57274 6.05919C3.43161 7.10893 3.42857 8.51074 3.42857 10.5714V13.4286C3.42857 15.4893 3.43161 16.8911 3.57274 17.9408C3.70835 18.9495 3.94745 19.4166 4.26541 19.7346C4.58337 20.0525 5.05054 20.2917 6.05919 20.4273C7.10893 20.5684 8.51074 20.5714 10.5714 20.5714H13.4286C15.4893 20.5714 16.8911 20.5684 17.9408 20.4273C18.9495 20.2917 19.4166 20.0525 19.7346 19.7346C20.0525 19.4166 20.2917 18.9495 20.4273 17.9408C20.5684 16.8911 20.5714 15.4893 20.5714 13.4286V10.5714C20.5714 8.51074 20.5684 7.10893 20.4273 6.05919C20.2917 5.05054 20.0525 4.58337 19.7346 4.26541C19.4166 3.94745 18.9495 3.70835 17.9408 3.57274C16.8911 3.43161 15.4893 3.42857 13.4286 3.42857ZM3.25526 3.25526C2 4.51051 2 6.53082 2 10.5714V13.4286C2 17.4692 2 19.4895 3.25526 20.7447C4.51051 22 6.53082 22 10.5714 22H13.4286C17.4692 22 19.4895 22 20.7447 20.7447C22 19.4895 22 17.4692 22 13.4286V10.5714C22 6.53082 22 4.51051 20.7447 3.25526C19.4895 2 17.4692 2 13.4286 2H10.5714C6.53082 2 4.51051 2 3.25526 3.25526ZM12 16.2857C14.3669 16.2857 16.2857 14.3669 16.2857 12C16.2857 9.63306 14.3669 7.71428 12 7.71428C9.63307 7.71428 7.71429 9.63306 7.71429 12C7.71429 14.3669 9.63307 16.2857 12 16.2857ZM12 17.7143C15.1559 17.7143 17.7143 15.1559 17.7143 12C17.7143 8.84408 15.1559 6.28571 12 6.28571C8.84409 6.28571 6.28572 8.84408 6.28572 12C6.28572 15.1559 8.84409 17.7143 12 17.7143ZM18.0714 7C18.6632 7 19.1429 6.5203 19.1429 5.92857C19.1429 5.33683 18.6632 4.85714 18.0714 4.85714C17.4797 4.85714 17 5.33683 17 5.92857C17 6.5203 17.4797 7 18.0714 7Z" fill="#3F3F3F"/>
</svg>
