<svg width="150" height="150" viewBox="0 0 150 150" fill="none" xmlns="http://www.w3.org/2000/svg">
<path fill-rule="evenodd" clip-rule="evenodd" d="M35.8197 55.2485C35.8197 46.8269 52.9235 40 74.0232 40C95.1224 40 112.227 46.8269 112.227 55.2485C112.227 63.6701 95.1224 70.497 74.0232 70.497C52.9239 70.497 35.8197 63.6705 35.8197 55.2485ZM82.544 56.5836C82.5388 56.5586 82.5261 56.5357 82.5076 56.5179C82.4892 56.5002 82.4657 56.4884 82.4404 56.4842C81.3409 56.3239 80.2366 56.1981 79.1292 56.107C79.064 56.0958 79.0178 56.0354 79.0609 55.8926C82.5918 52.1853 83.9329 47.468 82.1477 43.7772C82.1497 43.7604 82.155 43.7441 82.1633 43.7293C82.1716 43.7146 82.1827 43.7016 82.196 43.6911C82.2093 43.6806 82.2246 43.6728 82.241 43.6682C82.2573 43.6637 82.2744 43.6623 82.2912 43.6643C94.4416 45.1349 103.313 49.765 103.313 55.2485C103.313 61.9156 90.2 67.3205 74.0236 67.3205C57.8473 67.3205 44.7338 61.9161 44.7338 55.2485C44.7338 49.469 54.5896 44.6375 67.7527 43.4538C67.8166 43.456 67.8705 43.505 67.874 43.6057L65.0161 59.3091C64.9627 59.585 64.971 59.8693 65.0406 60.1416C65.1102 60.4139 65.2392 60.6675 65.4185 60.8843C65.5978 61.101 65.8229 61.2755 66.0777 61.3952C66.3324 61.515 66.6106 61.5771 66.8922 61.5771L66.9944 61.5823C69.5435 61.4499 72.2827 60.656 74.8701 59.1654C75.6033 58.7431 76.309 58.2748 76.9829 57.7634C77.0023 57.7475 77.0259 57.7378 77.0509 57.7354C77.0758 57.733 77.1009 57.7381 77.123 57.75C77.9847 58.3225 78.4806 58.9927 78.4806 59.7097C78.4806 60.6838 77.5654 61.5723 76.0598 62.2464C74.3107 63.0294 71.7647 63.5216 68.9298 63.5216C66.5273 63.5216 64.3322 63.1679 62.6292 62.5776C62.6127 62.5746 62.5958 62.575 62.5795 62.5786C62.5631 62.5822 62.5477 62.589 62.534 62.5986C62.5202 62.6082 62.5086 62.6204 62.4996 62.6345C62.4907 62.6487 62.4846 62.6644 62.4818 62.6809L62.239 64.0121C62.2349 64.0438 62.2429 64.0759 62.2613 64.102C62.2798 64.1281 62.3074 64.1464 62.3386 64.1532C65.8025 64.9575 69.7863 65.415 74.0262 65.415C79.3006 65.415 83.5775 63.7078 83.5775 61.6031C83.5775 60.784 82.9311 60.0257 81.8314 59.405C80.8679 58.9336 80.2611 58.3225 80.4098 57.9127C80.5643 57.4878 81.486 57.4196 82.5809 57.7139C82.6431 57.7222 82.7032 57.6849 82.7253 57.5737L82.544 56.5836ZM74.0232 46.9723C74.0232 47.0548 74.0206 47.1368 74.0153 47.2171C74.1545 50.0155 72.4206 53.7592 69.2525 56.9205C68.6236 57.5491 67.9539 58.1356 67.2476 58.6762C67.2198 58.694 67.186 58.7001 67.1537 58.6932C67.0875 58.6793 67.0445 58.6163 67.0562 58.5391L70.1612 41.484C70.1596 41.4525 70.1462 41.4227 70.1238 41.4004C70.1014 41.3781 70.0715 41.3649 70.0399 41.3634C52.927 42.1664 39.6399 48.0765 39.6399 55.2485C39.6399 62.9682 55.0337 69.226 74.0232 69.226C93.0131 69.226 108.407 62.9682 108.407 55.2485C108.407 47.5287 93.0135 41.2709 74.0232 41.2709C73.4216 41.2709 72.823 41.2774 72.2227 41.29C72.1943 41.2901 72.1667 41.2997 72.1443 41.3173C72.1219 41.3348 72.106 41.3593 72.0992 41.3868L71.7359 43.377C71.7272 43.4304 71.7525 43.4812 71.7968 43.5076C72.4614 43.8119 73.0244 44.3001 73.419 44.9143C73.8137 45.5284 74.0234 46.2427 74.0232 46.9723ZM38.4171 78.1212V96.7974H48.8093V101H32V78.1212H38.4171ZM63.5253 91.7294L60.5273 83.3972L57.5301 91.7294H63.5253ZM64.6041 78.1312L73.3172 100.994H66.6425L64.7237 95.5951H56.3313L54.4129 100.994H49.0568L57.6894 78.1312H64.6041ZM80.4255 96.7844H83.3026C85.0213 96.7844 87.2998 96.4854 88.7784 94.5182C90.2561 92.5523 90.297 90.2523 90.297 89.3195C90.297 88.1189 90.1369 85.6868 88.4191 83.9866C86.8196 82.454 84.7411 82.3203 83.183 82.3203H80.4255V96.7844ZM74.0301 78.1212H83.4222C86.1405 78.1212 90.2565 78.3877 93.4146 81.0876C95.9724 83.2539 97.1713 86.7868 97.1713 89.5196C97.1713 91.5189 96.5327 95.6181 93.0153 98.3848C90.2169 100.584 87.0601 100.984 84.1021 100.984H74.0306V78.1212H74.0301ZM109.208 91.719L106.211 83.3872L103.213 91.719H109.208ZM110.287 78.1212L119 100.984H112.325L110.407 95.5847H102.015L100.095 100.984H94.7396L103.373 78.1208H110.287V78.1212Z" fill="#BDC1C5"/>
</svg>
