<svg width="150" height="150" viewBox="0 0 150 150" fill="none" xmlns="http://www.w3.org/2000/svg">
<path d="M90.8666 104.507H95.0347V105.472H90.8666V104.507ZM21.5387 98.6535L21.1661 108.341V108.509C21.1661 109.329 21.4076 109.498 22.7147 109.591V110.04C21.7632 109.966 21.3888 109.948 20.8673 109.948C20.3443 109.948 19.9713 109.966 19.0011 110.04V109.591C20.3067 109.498 20.4942 109.348 20.5313 108.341L20.9232 99.177V99.0666C20.9232 98.2066 20.6615 98.0205 19.3751 97.9462V97.4786C20.1014 97.535 20.3815 97.5538 20.9044 97.5538C21.4968 97.5592 22.0889 97.5284 22.6775 97.4617L26.1467 106.904L29.6723 97.4617C30.5134 97.535 30.9047 97.5538 31.4648 97.5538C31.9294 97.5538 32.2292 97.535 32.9376 97.4786V97.9462C31.6696 98.0205 31.3881 98.2066 31.3881 99.0464V99.177L31.5939 108.341C31.6142 109.348 31.7809 109.497 33.1246 109.591V110.04C31.9496 109.928 31.5009 109.889 30.7924 109.889C30.0825 109.889 29.6347 109.926 28.4597 110.04V109.591C29.7277 109.517 30.0078 109.311 30.0078 108.435V108.343L29.8415 98.6747L26.7617 106.998L26.5386 107.614L26.2773 108.304L26.0335 109.015L25.8286 109.63H25.5486L25.3443 109.034L25.0821 108.304L24.8213 107.577L24.5972 106.924L21.5387 98.6535ZM35.548 104.682C35.735 102.536 36.443 101.436 37.6373 101.436C38.8504 101.436 39.4659 102.481 39.5772 104.682H35.548ZM37.9742 109.571C36.2762 109.571 35.5287 108.265 35.5118 105.353H41.0718C41.0337 102.479 39.8582 100.949 37.6561 100.949C35.4188 100.949 34.0187 102.759 34.0187 105.634C34.0187 108.508 35.4193 110.187 37.8248 110.187C39.6534 110.187 40.8482 109.047 41.0891 107.126H40.3421C40.1185 108.712 39.2977 109.571 37.9742 109.571ZM42.1818 101.639V101.304C43.2445 101.211 43.8797 101.099 44.6441 100.874C44.7376 101.566 44.7747 101.863 44.8119 102.424V102.63C45.2234 101.566 46.024 100.949 46.9952 100.949C47.9273 100.949 48.6184 101.566 48.6184 102.463C48.6184 103.004 48.3013 103.358 47.8347 103.358C47.4058 103.358 47.0703 103.096 47.0703 102.724C47.0703 102.687 47.0896 102.613 47.1065 102.536L47.1436 102.35V102.18C47.1436 101.919 46.9195 101.733 46.5836 101.733C45.6148 101.733 44.9993 102.908 44.9993 104.756V108.656C44.9993 109.46 45.1849 109.609 46.3238 109.665V110.038C45.2962 109.946 44.9049 109.925 44.2518 109.925C43.5804 109.925 43.1891 109.946 42.1634 110.038V109.665C43.3004 109.609 43.5057 109.46 43.5057 108.656V102.556C43.4879 101.752 43.3934 101.66 42.4247 101.641L42.1818 101.639ZM55.7559 100.782V103.863H55.3443C55.0083 102.237 54.3186 101.454 53.1812 101.454C51.7806 101.454 50.9608 102.967 50.9608 105.635C50.9608 108.247 51.6881 109.572 53.1243 109.572C54.2811 109.572 54.9712 108.752 55.1953 107.11H55.9597C55.7168 109.108 54.6536 110.19 52.9754 110.19C50.8109 110.19 49.338 108.36 49.338 105.637C49.338 102.854 50.8297 100.952 53.0313 100.952C53.8338 100.952 54.3374 101.157 54.9356 101.736L55.4378 100.784H55.7563V100.782H55.7559ZM58.8192 104.682C59.0058 102.536 59.7138 101.436 60.9086 101.436C62.1212 101.436 62.7367 102.481 62.8475 104.682H58.8192ZM61.2445 109.571C59.5465 109.571 58.8009 108.265 58.7821 105.353H64.3411C64.304 102.479 63.1275 100.949 60.9279 100.949C58.6877 100.949 57.288 102.759 57.288 105.634C57.288 108.508 58.6872 110.187 61.0956 110.187C62.9237 110.187 64.118 109.047 64.3595 107.126H63.6134C63.3897 108.712 62.5689 109.571 61.2445 109.571ZM69.5078 109.684C68.1646 109.684 67.4561 108.283 67.4561 105.616C67.4561 102.912 68.1087 101.586 69.4524 101.586C70.8337 101.586 71.5427 103.004 71.5427 105.749C71.5422 108.34 70.8515 109.684 69.5078 109.684ZM73.0151 108.097V97.3229C72.0825 97.5726 71.2439 97.7206 70.1994 97.8325V98.1506C71.3745 98.1506 71.5239 98.2813 71.5239 99.2513V102.517C70.8337 101.398 70.2925 101.061 69.2847 101.061C67.2888 101.061 65.8887 102.945 65.8887 105.632C65.8887 108.32 67.3057 110.203 69.3406 110.203C70.4038 110.203 71.1316 109.718 71.6535 108.674C71.7278 109.383 71.7278 109.457 71.9152 110.165C72.6792 109.922 72.9973 109.848 74.0981 109.718L74.3776 109.681V109.364C73.1274 109.327 73.0151 109.235 73.0151 108.097ZM76.6149 104.682C76.8014 102.536 77.5099 101.436 78.7047 101.436C79.9173 101.436 80.5318 102.481 80.6437 104.682H76.6149ZM79.0406 109.571C77.3417 109.571 76.5971 108.265 76.5773 105.353H82.1368C82.0992 102.479 80.9242 100.949 78.7235 100.949C76.4833 100.949 75.0847 102.759 75.0847 105.634C75.0847 108.508 76.4833 110.187 78.8912 110.187C80.7193 110.187 81.9131 109.047 82.1546 107.126H81.4081C81.1859 108.712 80.3636 109.571 79.0406 109.571ZM83.721 110.206V107.088L84.1316 107.07C84.4666 108.769 85.2508 109.591 86.5574 109.591C87.6567 109.591 88.4785 108.862 88.4785 107.913C88.4785 107.278 88.1247 106.85 87.209 106.438L86.5005 106.12L85.6426 105.728C84.2791 105.094 83.8507 104.571 83.8507 103.488C83.8507 102.014 85.0064 101.008 86.6494 101.008C87.3772 101.008 87.9194 101.175 88.5527 101.602L88.8689 100.838H89.2048V103.73H88.7749C88.6057 102.237 87.9912 101.529 86.8167 101.529C85.8282 101.529 85.0614 102.201 85.0614 103.078C85.0614 103.824 85.3414 104.068 87.0394 104.814L87.8235 105.151C89.24 105.764 89.7456 106.363 89.7456 107.465C89.7456 109.033 88.4949 110.151 86.7429 110.151C85.8841 110.151 85.2122 109.926 84.5037 109.367L84.054 110.206H83.7205H83.721ZM100.121 103.767C101.109 103.767 101.669 103.936 102.099 104.364C102.528 104.795 102.772 105.597 102.772 106.491C102.772 108.357 101.838 109.403 100.178 109.403H99.5064C98.5169 109.403 98.3497 109.253 98.3497 108.432V103.766L100.121 103.767ZM98.3482 98.1121H99.9344C101.502 98.1121 102.191 98.8786 102.191 100.613C102.191 101.471 101.987 102.088 101.576 102.572C101.166 103.04 100.663 103.188 99.6187 103.188H98.3497V98.1116H98.3482V98.1121ZM103.851 100.576C103.851 99.6051 103.442 98.748 102.732 98.2051C102.099 97.7389 101.372 97.5345 100.158 97.5345H95.2511V98.0007C96.5953 98.0759 96.7809 98.2249 96.7809 99.2325V108.283C96.7809 109.291 96.6305 109.42 95.2511 109.534V109.983H99.971C101.351 109.983 102.098 109.814 102.883 109.329C103.815 108.732 104.43 107.593 104.43 106.42C104.43 105.41 104.001 104.496 103.273 103.938C102.883 103.64 102.471 103.47 101.799 103.34C103.144 102.834 103.851 101.882 103.851 100.576ZM107.476 104.682C107.663 102.536 108.372 101.436 109.566 101.436C110.778 101.436 111.395 102.481 111.505 104.682H107.476ZM109.902 109.571C108.204 109.571 107.457 108.265 107.439 105.353H113C112.962 102.479 111.786 100.949 109.584 100.949C107.346 100.949 105.946 102.759 105.946 105.634C105.946 108.508 107.346 110.187 109.752 110.187C111.58 110.187 112.774 109.047 113.016 107.126H112.27C112.048 108.712 111.227 109.571 109.902 109.571ZM113.986 101.713V101.398C115.069 101.247 115.703 101.099 116.448 100.837C116.542 101.268 116.599 101.752 116.635 102.461C117.307 101.453 118.071 101.006 119.154 101.006C120.274 101.006 121.243 101.582 121.618 102.498C121.805 102.947 121.898 103.468 121.898 104.176V108.656C121.898 109.459 122.085 109.608 123.222 109.663V110.037C122.233 109.943 121.86 109.925 121.189 109.925C120.497 109.925 120.125 109.943 119.154 110.037V109.663C120.161 109.627 120.404 109.44 120.404 108.694V104.121C120.404 102.498 119.919 101.844 118.726 101.844C117.456 101.844 116.785 102.647 116.785 104.176V108.694C116.785 109.44 117.029 109.627 117.999 109.663V110.037C117.029 109.943 116.656 109.925 115.984 109.925C115.331 109.925 114.938 109.943 113.968 110.037V109.663C115.105 109.608 115.293 109.459 115.293 108.656V102.611C115.274 101.844 115.162 101.733 114.23 101.733C114.172 101.733 114.08 101.713 113.986 101.713ZM123.946 109.983L129.002 101.659H126.707C125.495 101.659 125.195 101.919 124.524 103.599H124.153L124.582 101.173H131L125.925 109.497H128.107C129.377 109.497 129.898 108.994 130.458 107.295H130.85L130.366 109.983H123.946Z" fill="#BDC1C5"/>
<path d="M97.8248 80.1091C100.31 75.9747 101.62 71.24 101.614 66.4156C101.614 51.713 89.6974 39.7946 74.9994 39.7946C60.3008 39.7946 48.3856 51.7135 48.3856 66.4156C48.3788 71.2401 49.6892 75.9749 52.1754 80.1091L52.0785 80.1867L52.1941 80.1419C56.8524 87.868 65.322 93.0366 74.9994 93.0366C84.6773 93.0366 93.1459 87.868 97.8036 80.1419L97.9193 80.1867L97.8248 80.1091ZM98.3439 66.4156C98.3485 70.4924 97.28 74.4985 95.2458 78.0313L78.7818 64.7673L75.4052 43.0767C88.1093 43.2937 98.3439 53.6559 98.3439 66.4156ZM51.6577 66.4156C51.6577 53.6564 61.8913 43.2942 74.5955 43.0767L71.2188 64.7673L54.7548 78.0313C52.7214 74.4983 51.6532 70.4923 51.6577 66.4156ZM75.0003 89.7646C66.7172 89.7646 59.4468 85.445 55.3038 78.9391L75.0003 71.3171L94.6969 78.9395C90.5534 85.445 83.2844 89.7646 75.0003 89.7646Z" fill="#BDC1C5"/>
</svg>
