<svg width="150" height="150" viewBox="0 0 150 150" fill="none" xmlns="http://www.w3.org/2000/svg">
<path fill-rule="evenodd" clip-rule="evenodd" d="M44.2649 63.3114H32.4671C31.0927 63.3114 29.9781 64.4289 29.9781 65.8072V85.3139C29.9781 86.6928 31.0927 87.8103 32.4671 87.8103H42.3066C43.4879 87.8103 44.2653 88.7055 44.6682 89.283C45.0715 89.8615 46.1088 91.1615 46.6912 92.0815C52.4083 101.421 63.215 107.72 75.6043 107.72C87.2994 107.72 97.5836 102.688 103.508 94.2558C104.178 93.2419 105.676 91.3347 106.771 89.1395C107.348 88.0988 107.808 87.8103 108.729 87.8103H118.51C118.838 87.8099 119.162 87.7449 119.464 87.6192C119.766 87.4935 120.041 87.3095 120.272 87.0777C120.503 86.8459 120.687 86.5709 120.812 86.2682C120.936 85.9656 121 85.6413 121 85.3139V65.8072C121.001 65.1462 120.739 64.5118 120.272 64.0438C119.805 63.5757 119.172 63.3123 118.51 63.3114H107.635C106.136 63.3114 104.753 62.1559 103.951 60.8822C98.4452 51.9092 87.7636 45.8242 75.489 45.8242C62.852 45.8242 51.9033 52.2736 46.553 61.6839C46.3389 62.5023 45.6476 63.3114 44.2649 63.3114C45.6476 63.3114 44.2649 63.3114 44.2649 63.3114Z" fill="white"/>
<path d="M44.2649 63.3114H32.4671C31.0927 63.3114 29.9781 64.4289 29.9781 65.8072V85.314C29.9781 86.6928 31.0927 87.8103 32.4671 87.8103H42.3066C43.4879 87.8103 44.2653 88.7055 44.6682 89.283C45.0715 89.8615 46.1088 91.1615 46.6912 92.0815C52.4083 101.421 63.215 107.72 75.6043 107.72C87.2994 107.72 97.5836 102.688 103.508 94.2558C104.178 93.2419 105.676 91.3347 106.771 89.1395C107.348 88.0988 107.808 87.8103 108.729 87.8103H118.51C118.838 87.8099 119.162 87.7449 119.464 87.6192C119.766 87.4935 120.041 87.3095 120.272 87.0777C120.503 86.8459 120.687 86.5709 120.812 86.2682C120.936 85.9656 121 85.6413 121 85.314V65.8072C121.001 65.1462 120.739 64.5118 120.272 64.0438C119.805 63.5757 119.172 63.3123 118.51 63.3114H107.635C106.136 63.3114 104.753 62.1559 103.951 60.8822C98.4452 51.9092 87.7636 45.8242 75.489 45.8242C62.852 45.8242 51.9033 52.2736 46.553 61.6839C46.3389 62.5023 45.6476 63.3114 44.2649 63.3114C44.2649 63.3114 45.6476 63.3114 44.2649 63.3114V63.3114Z" stroke="#BDC1C5" stroke-width="1.15851" stroke-miterlimit="2.613"/>
<path fill-rule="evenodd" clip-rule="evenodd" d="M31.1818 63.6689C30.8138 63.8915 30.5094 64.2053 30.2983 64.58C30.0871 64.9547 29.9764 65.3776 29.9767 65.8077V85.3144C29.9767 86.6932 31.0913 87.8108 32.4658 87.8108H42.3052C43.4865 87.8108 44.264 88.706 44.6668 89.2835C45.0702 89.862 46.1074 91.162 46.6898 92.082C52.407 101.422 63.2136 107.72 75.603 107.72C87.298 107.72 97.5822 102.689 103.507 94.2563C104.177 93.2423 105.675 91.3352 106.769 89.14C107.346 88.0993 107.807 87.8108 108.728 87.8108H118.509C118.836 87.8103 119.161 87.7454 119.463 87.6197C119.765 87.494 120.04 87.31 120.271 87.0782C120.502 86.8464 120.685 86.5713 120.81 86.2687C120.935 85.9661 120.999 85.6418 120.999 85.3144V65.8072C120.999 65.4795 120.935 65.1549 120.81 64.852C120.684 64.5491 120.501 64.2739 120.269 64.0421L116.978 67.1106C117.253 67.3549 117.428 67.7115 117.428 68.109V81.3945C117.428 81.7469 117.288 82.085 117.039 82.3345C116.79 82.5839 116.452 82.7243 116.1 82.7247H34.876C34.5237 82.7241 34.1859 82.5837 33.9371 82.3343C33.6882 82.0849 33.5485 81.7468 33.5488 81.3945V68.109C33.5488 67.7416 33.6977 67.4089 33.9375 67.168L31.1818 63.6689Z" fill="#BDC1C5" stroke="#BDC1C5" stroke-width="0.926805" stroke-miterlimit="2.613"/>
<path fill-rule="evenodd" clip-rule="evenodd" d="M49.157 66.0632C52.9013 55.3728 63.1684 48.5945 75.6035 48.5945C87.8794 48.5945 98.3008 54.1818 102.075 65.7698C100.951 64.8138 99.6266 64.0626 97.898 63.7736C98.2439 64.4669 98.8778 65.7382 97.3793 65.7382H54.4611C53.4817 65.7382 53.1358 64.8717 53.1937 64.1205C51.8684 64.3511 50.0755 65.348 49.157 66.0632C50.0755 65.348 49.157 66.0632 49.157 66.0632Z" fill="#BDC1C5"/>
<path fill-rule="evenodd" clip-rule="evenodd" d="M52.3997 95.078C58.0176 101.019 66.3289 104.778 75.603 104.778C84.9384 104.778 91.9064 101.563 97.9388 94.8444C102.507 95.3806 105.877 90.1616 107.057 87.117L103.313 84.1122L97.4372 87.5217L97.6965 87.9552L101.954 85.7172C98.0128 96.1843 88.0848 103.798 75.603 103.798C62.8979 103.798 52.1219 96.0291 48.3562 85.2677L53.2219 87.9835L53.4812 87.55L47.7777 84.1993C46.8557 84.5165 45.3577 85.4414 44.7821 86.25C44.2056 87.0586 44.5515 87.9251 44.897 88.6189C45.2429 89.3126 49.8517 96.5351 52.732 98.6724C51.81 97.6906 50.5426 96.0145 49.6211 94.1662L52.3997 95.078ZM97.3803 63.4261C94.3843 53.8348 84.8825 50.7463 75.4882 50.7463C66.4082 50.7463 58.2054 53.9501 54.5686 63.4227C54.2879 64.1199 54.8639 64.2352 55.2667 64.2352L96.8038 64.2347C97.4372 64.2357 97.4961 64.0036 97.3803 63.4261C97.4961 64.0036 97.3803 63.4261 97.3803 63.4261Z" fill="white"/>
<path fill-rule="evenodd" clip-rule="evenodd" d="M116.101 82.7246C116.454 82.7241 116.791 82.5837 117.04 82.3343C117.289 82.0849 117.429 81.7468 117.429 81.3944V68.1089C117.429 67.9344 117.395 67.7615 117.328 67.6001C117.262 67.4388 117.164 67.2922 117.041 67.1686C116.917 67.045 116.771 66.947 116.61 66.88C116.449 66.813 116.276 66.7785 116.101 66.7783H34.876C34.5236 66.7788 34.1858 66.9192 33.9369 67.1688C33.688 67.4183 33.5484 67.7565 33.5488 68.1089V81.3944C33.5486 81.5689 33.5828 81.7417 33.6494 81.903C33.716 82.0643 33.8137 82.2109 33.9369 82.3344C34.0602 82.4579 34.2065 82.5559 34.3677 82.6229C34.5288 82.6898 34.7015 82.7244 34.876 82.7246H116.101ZM96.6885 87.5796C97.2071 87.5796 97.3516 88.0413 97.1492 88.6193C93.8082 98.0954 83.438 101.332 75.4882 101.486C67.5379 101.332 57.1686 98.0949 53.8271 88.6193C53.6257 88.0413 53.7697 87.5796 54.2883 87.5796H96.6885Z" fill="white" stroke="#BDC1C5" stroke-width="1.15851" stroke-miterlimit="2.613"/>
<path fill-rule="evenodd" clip-rule="evenodd" d="M40.6185 80.1821V68.7342H45.8097L49.2835 77.4255V68.7342H52.4902V80.1821H47.4507L43.7867 71.1079V80.1821H40.6185ZM55.0502 68.7342H58.3333V80.1821H55.0502V68.7342ZM83.7279 80.1821L87.8123 68.7342H92.4693L96.5167 80.1821H93.2337L90.1034 71.2996L88.6141 75.5879H91.6019L92.4664 78.1144H87.7364L87.011 80.1821H83.7279ZM67.7257 75.7217V77.5782H60.7401V80.1821H67.84C69.52 80.1821 71.1231 78.8422 71.1231 76.6217C71.1231 74.4012 69.9393 73.1567 67.0766 73.1567H63.6792V71.2996H70.0926V68.7342H63.527C61.809 68.7342 60.3967 69.5764 60.3967 72.027C60.3967 73.1757 60.5879 75.7217 64.2524 75.7217H67.7257ZM97.7024 80.1821V68.7342H102.894L106.368 77.4255V68.7342H109.574V80.1821H104.536L100.871 71.1079V80.1821H97.7024ZM79.7915 75.7217V77.5782H72.8055V80.1821H79.9063C81.5853 80.1821 83.1884 78.8422 83.1884 76.6217C83.1884 74.4012 82.0052 73.1567 79.1424 73.1567H75.745V71.2996H82.1584V68.7342H75.5923C73.8744 68.7342 72.462 69.5764 72.462 72.027C72.462 73.1757 72.6527 75.7217 76.3167 75.7217H79.7915Z" fill="#BDC1C5"/>
</svg>
