<svg width="150" height="150" viewBox="0 0 150 150" fill="none" xmlns="http://www.w3.org/2000/svg">
<path fill-rule="evenodd" clip-rule="evenodd" d="M81.3574 61.3489H82.8149L74.2745 76.1275L74.5746 75.6101L70.0031 83.5298C69.8542 83.7849 69.4715 83.5676 69.5694 83.3033L73.3749 74.5661L65.8325 61.503H67.213L73.9842 73.1716C74.0139 73.2226 74.0564 73.2649 74.1076 73.2943C74.1588 73.3236 74.2168 73.339 74.2758 73.3389C74.3348 73.3388 74.3928 73.3232 74.4439 73.2937C74.495 73.2641 74.5374 73.2217 74.5669 73.1705L81.3344 61.3938C81.3435 61.3796 81.3512 61.3645 81.3574 61.3489ZM93.3694 61.2052C93.4052 61.1537 93.4261 61.0929 93.4291 61.0295C93.4434 60.7345 93.376 60.4074 93.2311 60.1493L79.872 37.0376C79.7215 36.7876 79.4572 36.681 79.1771 36.6937H69.3745C69.1 36.6866 68.802 36.8029 68.6407 37.0351L68.6249 37.0596L55.3352 60.1503C55.175 60.4365 55.0776 60.8182 55.0561 61.1443C55.0511 61.2209 55.0724 61.2965 55.1158 61.3589C55.1136 61.3825 55.1139 61.4065 55.1169 61.4305C55.126 61.5045 55.1459 61.5918 55.1725 61.6611L55.275 61.9061L68.6188 85.0192C68.7698 85.2846 69.0148 85.4443 69.3179 85.4774L69.3362 85.4795H79.2485C79.5128 85.4703 79.7889 85.3325 79.9343 85.107L93.3066 61.928C93.3566 61.8177 93.3865 61.464 93.4041 61.2566C93.4055 61.2395 93.4069 61.2234 93.4082 61.2086L93.3694 61.2052ZM80.7308 61.0927L74.274 72.3286L67.7789 61.1351L74.275 49.8844L80.7308 61.0927ZM65.7214 60.8289H55.7884C55.8231 60.7019 55.8634 60.5973 55.9236 60.4794L69.1959 37.4178L69.2699 37.3764C69.294 37.3659 69.3252 37.3663 69.3513 37.3666L69.3638 37.3667C69.4117 37.3678 79.2143 37.3667 79.2352 37.3647C79.2466 37.3629 79.2582 37.3642 79.2689 37.3684C79.2795 37.3726 79.2889 37.3796 79.296 37.3887L92.6423 60.4799C92.6759 60.5452 92.6999 60.6034 92.7188 60.6743H82.6984L75.1501 47.602L79 38.8531C79.1016 38.6179 78.6918 38.4276 78.5566 38.6597L65.7214 60.8289ZM119.526 109.929H115.785L112.045 109.928V108.79H112.961C113.197 108.79 113.56 108.457 113.56 108.22V96.3205C113.56 96.1786 113.447 96.0679 113.305 96.0679C112.215 96.1097 111.746 96.4638 111.746 97.9538V99.3437H109.571V94.9249H122V99.3437H119.825V97.9538C119.825 96.4638 119.355 96.1097 118.265 96.0679C118.123 96.0679 118.011 96.1786 118.011 96.3205V108.221C118.011 108.457 118.374 108.791 118.61 108.791H119.526V109.929ZM33.513 103.03C33.4089 102.838 33.1574 102.654 32.9742 102.654V102.653H32.5119L32.5073 108.244C32.5073 108.48 32.8589 108.789 33.0951 108.789H34.0172V109.927H26.5526V108.789H27.468C27.7043 108.789 28.0553 108.501 28.0553 108.265L28.0553 99.4336V96.6761C28.0553 96.4399 27.6894 96.0653 27.4532 96.0653H26.5368V94.9249H33.7891V96.0643H32.5068V99.4325H32.5068V101.502H34.1973C36.3184 101.502 36.2878 96.0638 34.1973 96.0638H33.7891V94.9239H37.1864C39.5601 94.9239 40.4689 96.943 40.4918 98.981C40.4689 100.999 39.504 102.514 37.5798 102.514L40.7322 108.07C40.7617 108.121 40.7905 108.174 40.8192 108.226C40.9743 108.51 41.1274 108.79 41.3909 108.79H41.7558V109.928H36.5593L33.5278 103.044L33.513 103.03ZM111.122 113.696V112.736H36.4888V113.696H111.122ZM55.2684 109.929V105.414H52.863V107.347C52.863 108.012 52.5477 108.79 51.9736 108.79H49.356C49.1198 108.79 48.7682 108.461 48.7682 108.226V103.174C48.7682 102.938 48.9488 102.754 49.1851 102.754H49.9275C50.1638 102.754 50.5245 103.132 50.5245 103.369V104.327H52.7416V99.7974H50.5766V100.736C50.5766 100.972 50.1831 101.393 49.9469 101.393H49.1856C48.9493 101.393 48.7687 101.125 48.7687 100.887V96.5598C48.7687 96.3235 49.1203 96.0664 49.3565 96.0664H51.9053C52.2354 96.0664 52.5263 96.3669 52.5263 96.6976V98.7702H54.7622V94.9249H42.7931V96.0653H43.7095C43.9458 96.0653 44.3111 96.4399 44.3111 96.6761V108.261C44.3111 108.497 43.9595 108.79 43.7233 108.79H42.8079V109.928L55.2684 109.929ZM59.7194 100.678L64.6872 109.929H69.0719V96.6333C69.0719 96.397 69.4235 96.0653 69.6597 96.0653H70.5756V94.9249H65.6578V96.0653H66.5783C66.8145 96.0653 67.1666 96.3955 67.1666 96.6312V104.441L61.8308 94.9249H56.2955V96.0653H57.2114C57.4482 96.0653 57.8141 96.422 57.8141 96.6583V108.243C57.8141 108.48 57.462 108.79 57.2262 108.79H56.3103V109.928H61.2282V108.79H60.3082C60.0714 108.79 59.7199 108.481 59.7199 108.246L59.7194 100.678ZM74.0224 100.356L71.5778 108.296C71.4869 108.54 71.3441 108.791 71.1078 108.791H70.1536V109.93H74.7332L74.7235 108.791H73.8091C73.5729 108.791 73.3244 108.535 73.3923 108.299L74.3623 104.761C74.3847 104.669 74.4449 104.587 74.5398 104.587H76.4007V104.586H76.4013H78.1254C78.2203 104.586 78.303 104.668 78.3249 104.761L79.2955 108.298C79.3643 108.535 79.1148 108.791 78.8791 108.791H77.9632L77.954 109.929H85.4635V108.791H84.5098C84.2735 108.791 84.1301 108.54 84.0393 108.295L80.1068 94.9249H73.4907V96.0653H74.2393C74.9292 96.0679 75.1935 96.5674 75.0567 97.0609L74.0219 100.355H75.6338L76.3635 97.8319L77.8443 103.017C77.8744 103.112 77.7407 103.206 77.6458 103.206H76.4007H76.4002L75.0603 103.207C74.9649 103.207 74.8521 103.114 74.8812 103.02L75.6343 100.356H74.0224ZM96.7412 106.435L96.7422 96.6822C96.7422 96.4455 97.1055 96.0664 97.3418 96.0664H98.2536V94.9259H93.6873V96.0664H94.6032C94.8394 96.0664 95.2022 96.4542 95.2022 96.6904L95.2012 106.488C95.1711 109.176 90.3379 109.458 90.3078 106.378V96.6705C90.3078 96.4338 90.6706 96.0664 90.9069 96.0664H91.8187V94.9259H84.3455V96.0664H85.2624C85.4987 96.0664 85.8615 96.4404 85.8615 96.6777V106.481C85.8609 111.313 96.7412 111.57 96.7412 106.435ZM105.286 96.6639C105.286 96.4271 105.654 96.0653 105.892 96.0653H106.81V94.9249H99.3144V96.0653H100.231C100.468 96.0653 100.833 96.422 100.833 96.6583V108.243C100.833 108.479 100.482 108.79 100.246 108.79H99.5007V109.928H111.12V105.396H108.713V107.328C108.713 107.993 108.399 108.789 107.825 108.789H105.873C105.635 108.789 105.285 108.443 105.285 108.206L105.286 96.6639Z" fill="#BDC1C5"/>
</svg>
