<svg width="24" height="24" viewBox="0 0 24 24" fill="none" xmlns="http://www.w3.org/2000/svg">
<path d="M20.3713 2.00195C20.0996 2.02095 19.8329 2.08224 19.5816 2.18341H19.5783C19.3371 2.27536 18.1903 2.7392 16.4468 3.44228L10.199 5.97222C5.71592 7.78687 1.30899 9.57386 1.30899 9.57386L1.36146 9.55433C1.36146 9.55433 1.05762 9.65035 0.740242 9.85949C0.544167 9.97945 0.375444 10.1364 0.244282 10.3209C0.0885538 10.5406 -0.0367058 10.8767 0.0098434 11.2241C0.0860147 11.8117 0.482106 12.164 0.766479 12.3585C1.05424 12.5554 1.32845 12.6474 1.32845 12.6474H1.33522L5.46794 13.986C5.65329 14.5581 6.72731 17.953 6.98545 18.735C7.13779 19.2021 7.2859 19.4943 7.47125 19.7172C7.56096 19.8311 7.66591 19.9264 7.79202 20.0028C7.85757 20.0395 7.92747 20.0685 8.00022 20.0891L7.9579 20.0793C7.97059 20.0826 7.98075 20.0924 7.99006 20.0956C8.02392 20.1046 8.04677 20.1078 8.08993 20.1143C8.74416 20.3047 9.26974 19.9141 9.26974 19.9141L9.29936 19.8914L11.7394 17.7553L15.8289 20.7718L15.922 20.8101C16.7743 21.1698 17.6376 20.9696 18.0938 20.6164C18.5533 20.2608 18.7319 19.8059 18.7319 19.8059L18.7615 19.7327L21.9218 4.16651C22.0115 3.78242 22.0344 3.42275 21.9353 3.07365C21.8332 2.72034 21.5975 2.41647 21.2743 2.22166C21.003 2.06307 20.6884 1.98652 20.3713 2.00195ZM20.2858 3.67013C20.2824 3.72139 20.2926 3.7157 20.2689 3.81416V3.82311L17.1382 19.2273C17.1247 19.2493 17.1018 19.2973 17.0392 19.3453C16.9732 19.3958 16.9207 19.4275 16.6457 19.3226L11.6437 15.6355L8.62228 18.2834L9.25704 14.3855L17.4294 7.06182C17.7662 6.76074 17.6537 6.69727 17.6537 6.69727C17.6774 6.32782 17.145 6.58904 17.145 6.58904L6.83987 12.7271L6.83649 12.7109L1.8972 11.1118V11.1086L1.88451 11.1061C1.89316 11.1034 1.90164 11.1001 1.9099 11.0964L1.93698 11.0834L1.96322 11.0744C1.96322 11.0744 6.37354 9.28742 10.8566 7.47277C13.1012 6.56381 15.3626 5.64835 17.1018 4.94201C18.8411 4.23975 20.1267 3.72465 20.1995 3.69698C20.2689 3.67094 20.2359 3.67094 20.2858 3.67094V3.67013Z" fill="#3F3F3F"/>
</svg>
