<svg width="24" height="24" viewBox="0 0 24 24" fill="none" xmlns="http://www.w3.org/2000/svg">
<path d="M18.9707 19C18.5716 19 17.9329 18.9176 17.2144 18.4235C16.6556 18.0941 16.2565 17.6 15.7775 17.0235C15.538 16.6941 15.059 16.2824 14.8195 16.1176C14.7397 16.2824 14.5801 16.8588 14.5801 17.2706C14.5801 17.4353 14.5801 18.0118 14.1809 18.4235C13.7818 18.8353 13.2229 18.9176 13.0633 18.9176H12.9835H11.6263C11.5465 18.9176 8.35331 19.0824 5.55926 16.2C2.68537 13.3176 0.210642 7.71765 0.130812 7.47059C-0.0288482 7.05882 -0.108678 6.48235 0.290472 5.98824C0.689622 5.57647 1.24843 5.49412 1.48792 5.49412H4.76096H4.84079C4.92062 5.49412 5.31977 5.57647 5.71892 5.82353C6.03824 6.07059 6.1979 6.4 6.27773 6.56471C6.27773 6.56471 6.75671 7.8 7.39535 8.87059C8.11382 10.0235 8.51297 10.5176 8.75246 10.8471C8.75246 10.3529 8.83229 9.52941 8.75246 8.70588C8.75246 8.29412 8.67263 7.8 8.5928 7.71765C8.5928 7.63529 8.35331 7.55294 8.11382 7.55294L7.7945 7.47059H7.55501L7.47518 7.22353L7.39535 6.81176C7.31552 6.15294 7.95416 5.57647 8.43314 5.32941C9.15161 5 10.1894 5 11.5465 5C12.5045 5 12.8238 5.08235 13.3028 5.16471C14.8195 5.49412 14.7397 6.81176 14.6599 8.21176C14.6599 8.62353 14.6599 9.03529 14.6599 9.61176C14.6599 9.77647 14.6599 9.85882 14.6599 10.0235C14.6599 10.1882 14.6599 10.5176 14.6599 10.7647C14.8994 10.5176 15.2985 9.94118 15.9372 8.95294C16.5758 7.88235 17.1346 6.56471 17.1346 6.56471C17.2144 6.4 17.3741 5.98824 17.7733 5.82353C18.0926 5.65882 18.4917 5.65882 18.6514 5.65882H21.9244C22.3236 5.57647 23.521 5.57647 23.9202 6.48235C24.1597 7.14118 23.9202 8.12941 22.0841 10.6C21.7648 11.0118 21.5253 11.2588 21.2858 11.5882C20.8068 12.1647 20.4076 12.7412 20.3278 12.9059C20.4076 12.9882 20.8068 13.4 21.2858 13.7294C22.4832 14.8 23.2815 15.7059 23.6807 16.4471C24.1597 17.1882 24 17.7647 23.8403 18.0941C23.4412 18.9176 22.4034 19 22.2437 19H19.1304C19.1304 19 19.0505 19 18.9707 19ZM14.8195 14.4706C15.6178 14.4706 16.2565 15.2118 16.975 15.9529C17.3741 16.3647 17.7733 16.7765 18.0926 17.0235C18.6514 17.3529 18.9707 17.3529 19.0505 17.3529H19.1304H22.0841C22.0841 17.3529 22.1639 17.3529 22.2437 17.3529V17.2706C21.9244 16.6941 21.2059 15.9529 20.248 15.0471C18.1724 13.2353 18.3321 12.6588 20.0085 10.5176C20.248 10.2706 20.4875 9.94118 20.727 9.52941C21.6849 8.21176 22.0841 7.55294 22.2437 7.22353C22.1639 7.22353 22.0841 7.22353 22.0042 7.22353H21.9244H18.5716C18.4119 7.55294 17.9329 8.70588 17.2943 9.77647C16.1767 11.5882 14.9792 13.1529 13.8616 12.4941C12.9835 11.9176 12.9835 10.7647 13.0633 9.94118C13.0633 9.77647 13.0633 9.69412 13.0633 9.61176C13.0633 9.03529 13.0633 8.54118 13.0633 8.12941C13.0633 7.63529 13.1431 6.97647 13.0633 6.81176H12.9835C12.5843 6.72941 12.3448 6.64706 11.5465 6.64706C11.0675 6.64706 10.4289 6.64706 9.87008 6.64706C10.3491 7.30588 10.3491 8.37647 10.3491 8.70588C10.5087 10.8471 10.1894 12.1647 9.47093 12.5765C8.19365 13.2353 7.07603 11.5882 6.03824 9.77647C5.31977 8.62353 4.76096 7.30588 4.76096 7.22353C4.76096 7.22353 4.68113 7.14118 4.60129 7.14118H1.72741C2.36605 8.54118 4.44164 12.8235 6.67688 15.1294C8.99195 17.4353 11.6263 17.3529 11.6263 17.3529H12.9835C12.9835 17.3529 12.9835 17.3529 13.0633 17.3529C13.0633 16.7765 13.1431 14.9647 14.4204 14.5529C14.5801 14.4706 14.6599 14.4706 14.8195 14.4706Z" fill="#3F3F3F"/>
</svg>
