<svg width="150" height="150" viewBox="0 0 150 150" fill="none" xmlns="http://www.w3.org/2000/svg">
<path fill-rule="evenodd" clip-rule="evenodd" d="M74.5207 39.5191C76.233 39.5191 77.8945 39.7484 79.4765 40.177L74.2131 51.946L69.051 40.3234C70.8301 39.7691 72.5608 39.5191 74.5207 39.5191ZM71.2103 58.6832L67.6073 66.6901L59.0715 47.5088C60.5169 45.4658 62.349 43.7261 64.464 42.3882L71.3797 57.9746H77.5869L84.536 42.3859C86.2386 43.4498 87.7636 44.7745 89.0551 46.3116C89.2326 46.5374 89.4089 46.769 89.5794 47.0041L80.7936 66.6913L77.2158 58.6844H71.2103V58.6832ZM65.6899 75.2939C59.6614 72.1091 55.5421 65.7764 55.5421 58.4965C55.5421 56.744 55.7541 55.0951 56.2012 53.4831L65.9745 75.4334C65.8605 75.3792 65.8052 75.3481 65.6899 75.2939ZM74.1831 77.2919C72.5158 77.2919 70.8658 77.0776 69.27 76.6524L74.4527 64.9364L79.6401 76.513C77.8669 77.0286 76.0298 77.2908 74.1831 77.2919ZM83.1695 75.0416L92.6755 53.6905C93.0396 55.1758 93.2274 56.7025 93.2274 58.2488C93.2232 61.6952 92.2859 65.0761 90.515 68.0327C88.7442 70.9893 86.2059 73.4113 83.1695 75.0416ZM74.5 82C87.4581 82 98 71.4593 98 58.5C98 45.5407 87.4593 35 74.5 35C61.5407 35 51 45.5419 51 58.5C51 71.4581 61.5419 82 74.5 82Z" fill="#BDC1C5"/>
<path fill-rule="evenodd" clip-rule="evenodd" d="M28.5183 103.766H25.1895L20 89.774H23.3678L26.0413 97.6686C26.356 98.5965 26.6336 99.5365 26.8735 100.486C27.1108 99.5196 27.3687 98.6723 27.6852 97.7667L30.4582 89.774H33.786L28.5183 103.766ZM40.1038 99.4295C40.1038 100.59 39.2761 101.635 38.0349 101.635C36.9512 101.635 35.9465 100.729 35.9465 99.4693C35.9465 98.2888 36.7351 97.2445 38.0154 97.2445C39.1774 97.2454 40.1038 98.1908 40.1038 99.4295ZM42.9498 99.4295C42.9498 96.7753 40.8746 94.8218 38.034 94.8218C35.0894 94.8218 33.0988 96.8548 33.0988 99.411C33.0988 102.127 35.2086 104.06 37.8962 104.06C41.1316 104.06 42.9498 101.774 42.9498 99.4295ZM45.1058 103.766V89H47.9224V103.766H45.1058ZM55.9943 103.766L53.2577 99.7211V103.766H50.4411V89H53.2577V98.6776L55.9943 95.1337H59.4457L56.0939 99.1105L59.6831 103.766H55.9943ZM63.9115 104.025C61.9138 104.025 60.8798 103.376 60.3437 101.977L62.7291 101.053C62.9478 101.623 63.4074 102.037 63.9924 102.037C64.557 102.037 64.9002 101.82 64.9002 101.447C64.9002 100.187 60.6415 100.737 60.6415 97.7278C60.6415 96.1542 61.9333 94.8544 64.1534 94.8544C65.7902 94.8544 66.9371 95.4447 67.5105 96.8822L65.2549 97.7481C64.9775 97.0598 64.4957 96.8424 64.0316 96.8424C63.6688 96.8424 63.2652 97.0598 63.2652 97.453C63.2652 98.8305 67.5301 98.2005 67.5301 101.228C67.531 102.981 65.968 104.025 63.9115 104.025ZM81.1356 103.766H78.4773L76.9899 99.5187C76.8324 99.0962 76.7128 98.6607 76.6325 98.2173C76.54 98.6639 76.421 99.1047 76.2759 99.5373L74.7876 103.765H72.0101L68.2609 95.1124H71.1966L72.8432 99.2819C73.0415 99.7547 73.1802 100.287 73.3393 100.799C73.478 100.287 73.6167 99.7343 73.7563 99.3217L75.2242 95.1124H78.1208L79.4891 99.0452C79.6882 99.6354 79.866 100.188 79.9852 100.76C80.1834 100.11 80.3817 99.5364 80.58 99.0452L82.1269 95.1124H85.004L81.1356 103.766ZM92.5514 99.5885C92.5514 100.771 91.777 101.854 90.4665 101.854C89.116 101.854 88.3016 100.77 88.3016 99.4878C88.3016 98.1678 89.1951 97.2825 90.3669 97.2825C91.6979 97.2833 92.5514 98.3463 92.5514 99.5885ZM95.232 103.765V95.1345H92.4527V96.1391C91.9762 95.4102 90.943 94.8589 89.7312 94.8589C87.0347 94.8589 85.4112 96.8486 85.4112 99.5682C85.4112 102.19 86.9555 104.062 89.4734 104.062C90.8239 104.062 91.737 103.589 92.4527 102.878V103.765H95.232ZM104.342 99.3367C104.342 100.499 103.609 101.524 102.361 101.524C101.054 101.524 100.261 100.638 100.261 99.3579C100.261 98.2155 101.073 97.2489 102.262 97.2489C103.688 97.2489 104.342 98.4116 104.342 99.3367ZM107.042 102.943V95.1275H104.262V96.1091C103.727 95.2644 102.738 94.8916 101.528 94.8916C99.1715 94.8916 97.3693 96.8168 97.3693 99.4163C97.3693 101.701 98.6762 103.693 101.449 103.693C102.539 103.693 103.49 103.377 104.262 102.53V103.752C104.262 105.157 103.629 105.909 102.321 105.909C101.47 105.909 100.657 105.374 100.657 104.621H97.8654C97.8654 106.519 99.4293 108 102.144 108C103.728 108 104.934 107.625 105.901 106.697C106.767 105.828 107.042 104.859 107.042 102.943ZM115.416 98.4647H111.931C112.029 97.5069 112.707 96.8027 113.723 96.8027C114.779 96.8036 115.416 97.6438 115.416 98.4647ZM118.196 99.3332C118.196 96.4669 116.383 94.8218 113.743 94.8218C111.038 94.8218 109.194 96.8433 109.194 99.509C109.194 102.556 111.375 104.058 113.723 104.058C115.732 104.058 116.993 103.368 117.999 102.063L116.186 100.877C115.614 101.634 114.92 102.002 114.022 102.002C112.808 102.002 111.971 101.187 111.91 100.119H118.177C118.196 99.7856 118.196 99.4905 118.196 99.3332ZM126.184 103.766V98.9824C126.184 98.1934 125.927 97.2842 124.861 97.2842C124.309 97.2842 123.145 97.6014 123.145 99.2183V103.765H120.329V95.1239H123.145V96.2637C123.559 95.6929 124.368 94.9278 125.946 94.9278C127.056 94.9278 127.771 95.3201 128.226 95.7725C128.781 96.3229 129 97.0306 129 98.2924V103.766H126.184Z" fill="#BDC1C5"/>
</svg>
