<svg width="24" height="24" viewBox="0 0 24 24" fill="none" xmlns="http://www.w3.org/2000/svg">
<path d="M23 11.9311C23 11.8769 23 11.8153 22.9975 11.7439C22.9951 11.5445 22.9902 11.3204 22.9853 11.0816C22.9656 10.3946 22.9312 9.71006 22.8772 9.06494C22.8036 8.17605 22.6955 7.4349 22.5482 6.87842C22.3927 6.29769 22.088 5.76805 21.6645 5.34244C21.2409 4.91682 20.7134 4.61015 20.1346 4.45306C19.4397 4.26593 18.0795 4.1502 16.1643 4.07879C15.2533 4.04432 14.2786 4.02216 13.3038 4.00985C12.9625 4.00492 12.6458 4.00246 12.3609 4H11.6391C11.3542 4.00246 11.0375 4.00492 10.6962 4.00985C9.72143 4.02216 8.74665 4.04432 7.83571 4.07879C5.92054 4.15266 4.55781 4.26839 3.8654 4.45306C3.28643 4.60976 2.7587 4.91631 2.33509 5.34198C1.91147 5.76765 1.60687 6.2975 1.45179 6.87842C1.30201 7.4349 1.19643 8.17605 1.12277 9.06494C1.06875 9.71006 1.03437 10.3946 1.01473 11.0816C1.00737 11.3204 1.00491 11.5445 1.00246 11.7439C1.00246 11.8153 1 11.8769 1 11.9311V12.0689C1 12.1231 1 12.1847 1.00246 12.2561C1.00491 12.4555 1.00982 12.6796 1.01473 12.9184C1.03437 13.6054 1.06875 14.2899 1.12277 14.9351C1.19643 15.8239 1.30446 16.5651 1.45179 17.1216C1.76607 18.301 2.68929 19.2318 3.8654 19.5469C4.55781 19.7341 5.92054 19.8498 7.83571 19.9212C8.74665 19.9557 9.72143 19.9778 10.6962 19.9901C11.0375 19.9951 11.3542 19.9975 11.6391 20H12.3609C12.6458 19.9975 12.9625 19.9951 13.3038 19.9901C14.2786 19.9778 15.2533 19.9557 16.1643 19.9212C18.0795 19.8473 19.4422 19.7316 20.1346 19.5469C21.3107 19.2318 22.2339 18.3035 22.5482 17.1216C22.698 16.5651 22.8036 15.8239 22.8772 14.9351C22.9312 14.2899 22.9656 13.6054 22.9853 12.9184C22.9926 12.6796 22.9951 12.4555 22.9975 12.2561C22.9975 12.1847 23 12.1231 23 12.0689V11.9311ZM21.2321 12.0591C21.2321 12.1108 21.2321 12.1674 21.2297 12.2339C21.2272 12.426 21.2223 12.6377 21.2174 12.8667C21.2002 13.5217 21.1658 14.1767 21.1143 14.7849C21.048 15.5777 20.9547 16.2278 20.8393 16.6636C20.6871 17.2324 20.2402 17.683 19.6754 17.8332C19.1598 17.9711 17.8609 18.0819 16.0955 18.1484C15.2018 18.1828 14.2393 18.205 13.2792 18.2173C12.9429 18.2222 12.631 18.2247 12.3511 18.2247H11.6489L10.7208 18.2173C9.76071 18.205 8.80067 18.1828 7.90446 18.1484C6.13906 18.0794 4.83772 17.9711 4.32455 17.8332C3.75982 17.6805 3.31295 17.2324 3.16071 16.6636C3.04531 16.2278 2.95201 15.5777 2.88571 14.7849C2.83415 14.1767 2.80223 13.5217 2.78259 12.8667C2.77522 12.6377 2.77277 12.4235 2.77031 12.2339C2.77031 12.1674 2.76786 12.1083 2.76786 12.0591V11.9409C2.76786 11.8892 2.76786 11.8326 2.77031 11.7661C2.77277 11.574 2.77768 11.3623 2.78259 11.1333C2.79978 10.4783 2.83415 9.82333 2.88571 9.21514C2.95201 8.42228 3.04531 7.77224 3.16071 7.33641C3.31295 6.76762 3.75982 6.31702 4.32455 6.16682C4.84018 6.02893 6.13906 5.91813 7.90446 5.85165C8.79821 5.81717 9.76071 5.79501 10.7208 5.7827C11.0571 5.77778 11.369 5.77532 11.6489 5.77532H12.3511L13.2792 5.7827C14.2393 5.79501 15.1993 5.81717 16.0955 5.85165C17.8609 5.92059 19.1623 6.02893 19.6754 6.16682C20.2402 6.31948 20.6871 6.76762 20.8393 7.33641C20.9547 7.77224 21.048 8.42228 21.1143 9.21514C21.1658 9.82333 21.1978 10.4783 21.2174 11.1333C21.2248 11.3623 21.2272 11.5765 21.2297 11.7661C21.2297 11.8326 21.2321 11.8917 21.2321 11.9409V12.0591ZM9.81473 15.2995L15.5112 11.9754L9.81473 8.70052V15.2995Z" fill="#3F3F3F"/>
</svg>
